<?xml version="1.0" encoding="UTF-8"?>
<svg version="1.1" xmlns="http://www.w3.org/2000/svg" width="109" height="107">
<path d="M0 0 C1.29531143 -0.00619858 2.59062286 -0.01239716 3.92518616 -0.01878357 C6.65432669 -0.02913293 9.38294406 -0.02470673 12.11206055 -0.01000977 C15.58317643 0.00716744 19.05263506 -0.0163292 22.52356625 -0.05149937 C25.86997043 -0.07893437 29.21598909 -0.06872683 32.5625 -0.0625 C34.41137062 -0.08238731 34.41137062 -0.08238731 36.29759216 -0.10267639 C46.12911502 0.00250997 53.29869476 2.23344618 60.28515625 9.31640625 C66.75178998 16.62513233 66.80492435 26.09292713 66.78125 35.34375 C66.78649185 36.55027725 66.7917337 37.7568045 66.7971344 38.99989319 C66.8035314 41.54052972 66.80224788 44.08119596 66.79370117 46.62182617 C66.78518981 50.48865963 66.81399083 54.35401517 66.84570312 58.22070312 C66.84731543 60.69921831 66.84673705 63.17773609 66.84375 65.65625 C66.85498398 66.8013353 66.86621796 67.94642059 66.87779236 69.12620544 C66.80257584 77.87671674 64.99329869 84.5601477 60.16015625 91.87890625 C53.40768472 98.33126794 46.91914601 100.35463967 37.72265625 100.44140625 C36.68230225 100.46404541 35.64194824 100.48668457 34.57006836 100.51000977 C31.53743321 100.55653253 28.50664049 100.57127258 25.47369385 100.56707764 C23.16125105 100.56634738 20.84903111 100.57827603 18.53662109 100.59033203 C14.19695908 100.60676896 9.85896541 100.58116074 5.51959229 100.53009033 C3.79468337 100.51278193 2.06966111 100.50428618 0.34466553 100.50506592 C-10.7677357 100.48916758 -18.56773025 99.80756162 -27.24365234 92.16455078 C-34.1409952 84.93697605 -34.10022979 75.1200998 -34.05078125 65.75390625 C-34.05365143 64.54500732 -34.05652161 63.3361084 -34.05947876 62.09057617 C-34.06151171 59.54573089 -34.05603596 57.0008697 -34.04345703 54.45605469 C-34.02739351 50.57841791 -34.04333313 46.70182341 -34.0625 42.82421875 C-34.06051743 40.34244563 -34.05667348 37.86067316 -34.05078125 35.37890625 C-34.05685394 34.22865967 -34.06292664 33.07841309 -34.06918335 31.89331055 C-33.9940233 23.21860845 -33.03239385 15.41382806 -27.02734375 8.75390625 C-26.11082031 7.69236328 -26.11082031 7.69236328 -25.17578125 6.609375 C-17.46747279 0.36874756 -9.63451648 -0.03870546 0 0 Z " fill="#1C2F2E" transform="translate(37.65234375,3.43359375)"/>
<path d="M0 0 C1.13500443 -0.0127597 2.27000885 -0.02551941 3.43940735 -0.03866577 C5.26607185 -0.04200424 5.26607185 -0.04200424 7.12963867 -0.04541016 C9.02162239 -0.05539536 9.02162239 -0.05539536 10.951828 -0.06558228 C13.61907069 -0.07570214 16.28590568 -0.08126554 18.953125 -0.08007812 C22.35254064 -0.07987527 25.75111716 -0.10715145 29.15033436 -0.14162254 C32.4142367 -0.16935881 35.67813458 -0.168044 38.94213867 -0.17041016 C40.75969414 -0.19196671 40.75969414 -0.19196671 42.6139679 -0.21395874 C50.52591931 -0.17141968 56.13493143 0.681106 62.25854492 6.07177734 C62.70456055 6.63896484 63.15057617 7.20615234 63.61010742 7.79052734 C64.30233398 8.64130859 64.30233398 8.64130859 65.00854492 9.50927734 C67.75281088 13.49458078 68.483008 16.28179288 68.4621582 21.16064453 C68.46200714 22.34156677 68.46185608 23.52248901 68.46170044 24.73919678 C68.45137787 26.00910461 68.4410553 27.27901245 68.43041992 28.58740234 C68.42759003 29.8913092 68.42476013 31.19521606 68.42184448 32.53863525 C68.41422463 35.99761684 68.3945905 39.45642928 68.37243652 42.91534424 C68.35194245 46.44793408 68.34283517 49.98055138 68.33276367 53.51318359 C68.31134291 60.43903413 68.27722698 67.36477261 68.23510742 74.29052734 C67.24510742 74.78552734 67.24510742 74.78552734 66.23510742 75.29052734 C66.23510742 73.97052734 66.23510742 72.65052734 66.23510742 71.29052734 C64.75010742 70.79552734 64.75010742 70.79552734 63.23510742 70.29052734 C64.22510742 69.96052734 65.21510742 69.63052734 66.23510742 69.29052734 C66.23510742 67.31052734 66.23510742 65.33052734 66.23510742 63.29052734 C62.93510742 64.28052734 59.63510742 65.27052734 56.23510742 66.29052734 C56.89510742 67.94052734 57.55510742 69.59052734 58.23510742 71.29052734 C58.89510742 71.29052734 59.55510742 71.29052734 60.23510742 71.29052734 C60.23510742 72.94052734 60.23510742 74.59052734 60.23510742 76.29052734 C61.88510742 76.29052734 63.53510742 76.29052734 65.23510742 76.29052734 C64.24510742 76.95052734 63.25510742 77.61052734 62.23510742 78.29052734 C61.21642081 79.27148483 60.21158759 80.26754812 59.23510742 81.29052734 C60.88510742 81.62052734 62.53510742 81.95052734 64.23510742 82.29052734 C62.72170795 86.52804588 60.04519533 88.0923997 56.23510742 90.29052734 C50.26611479 93.00091267 44.11338901 92.59633163 37.68823242 92.59130859 C36.48068298 92.59559372 35.27313354 92.59987885 34.0289917 92.60429382 C31.48393378 92.61002482 28.93885949 92.61054648 26.39379883 92.60620117 C22.48515302 92.60302738 18.57725422 92.62656454 14.66870117 92.65185547 C12.19604588 92.65412706 9.72338855 92.65483261 7.25073242 92.65380859 C6.07681946 92.66301834 4.90290649 92.67222809 3.69342041 92.68171692 C2.61179626 92.67548813 1.53017212 92.66925934 0.41577148 92.6628418 C-0.53875916 92.66347122 -1.49328979 92.66410065 -2.47674561 92.66474915 C-3.60937836 92.47950935 -3.60937836 92.47950935 -4.76489258 92.29052734 C-5.42489258 91.30052734 -6.08489258 90.31052734 -6.76489258 89.29052734 C-5.90250977 88.46101563 -5.90250977 88.46101563 -5.02270508 87.61474609 C-2.70210311 85.22589112 -0.69104749 82.72562947 1.36010742 80.10302734 C15.09022215 63.31929943 35.63100631 50.82574389 57.23510742 47.29052734 C49.43761147 47.01311647 49.43761147 47.01311647 41.79760742 48.35302734 C38.36444968 49.25648991 37.42114992 49.29185498 34.23510742 48.29052734 C35.22510742 47.30052734 36.21510742 46.31052734 37.23510742 45.29052734 C36.57510742 44.63052734 35.91510742 43.97052734 35.23510742 43.29052734 C36.22510742 43.29052734 37.21510742 43.29052734 38.23510742 43.29052734 C38.23510742 42.63052734 38.23510742 41.97052734 38.23510742 41.29052734 C39.22510742 41.29052734 40.21510742 41.29052734 41.23510742 41.29052734 C41.23510742 42.28052734 41.23510742 43.27052734 41.23510742 44.29052734 C42.22510742 44.29052734 43.21510742 44.29052734 44.23510742 44.29052734 C44.56510742 42.97052734 44.89510742 41.65052734 45.23510742 40.29052734 C45.56510742 41.28052734 45.89510742 42.27052734 46.23510742 43.29052734 C48.54510742 43.29052734 50.85510742 43.29052734 53.23510742 43.29052734 C53.89510742 41.97052734 54.55510742 40.65052734 55.23510742 39.29052734 C56.88510742 39.29052734 58.53510742 39.29052734 60.23510742 39.29052734 C60.23510742 39.95052734 60.23510742 40.61052734 60.23510742 41.29052734 C61.88510742 41.29052734 63.53510742 41.29052734 65.23510742 41.29052734 C64.74010742 38.32052734 64.74010742 38.32052734 64.23510742 35.29052734 C63.24510742 35.29052734 62.25510742 35.29052734 61.23510742 35.29052734 C61.44135742 34.69240234 61.64760742 34.09427734 61.86010742 33.47802734 C62.54182658 31.00601889 62.54182658 31.00601889 60.23510742 28.29052734 C58.17585603 27.56670268 58.17585603 27.56670268 56.23510742 27.29052734 C56.11135742 26.32115234 55.98760742 25.35177734 55.86010742 24.35302734 C55.55073242 22.83708984 55.55073242 22.83708984 55.23510742 21.29052734 C54.57510742 20.96052734 53.91510742 20.63052734 53.23510742 20.29052734 C52.74010742 18.80552734 52.74010742 18.80552734 52.23510742 17.29052734 C49.92510742 16.96052734 47.61510742 16.63052734 45.23510742 16.29052734 C42.73434369 19.47331755 41.25323861 21.36583685 41.17260742 25.47802734 C42.49602891 28.98120187 43.93893309 29.68469882 47.23510742 31.29052734 C47.23510742 31.62052734 47.23510742 31.95052734 47.23510742 32.29052734 C45.99760742 32.41427734 44.76010742 32.53802734 43.48510742 32.66552734 C40.35888772 33.04799039 37.94631505 33.59602257 35.23510742 35.29052734 C34.90510742 34.30052734 34.57510742 33.31052734 34.23510742 32.29052734 C33.24510742 31.63052734 32.25510742 30.97052734 31.23510742 30.29052734 C31.23510742 29.30052734 31.23510742 28.31052734 31.23510742 27.29052734 C30.57510742 26.96052734 29.91510742 26.63052734 29.23510742 26.29052734 C29.89510742 28.60052734 30.55510742 30.91052734 31.23510742 33.29052734 C31.89510742 33.29052734 32.55510742 33.29052734 33.23510742 33.29052734 C32.90510742 34.28052734 32.57510742 35.27052734 32.23510742 36.29052734 C29.26510742 33.65052734 26.29510742 31.01052734 23.23510742 28.29052734 C21.97698242 29.23927734 20.71885742 30.18802734 19.42260742 31.16552734 C17.05919521 32.94777262 14.69996557 34.64728858 12.23510742 36.29052734 C12.23510742 35.30052734 12.23510742 34.31052734 12.23510742 33.29052734 C12.89510742 32.96052734 13.55510742 32.63052734 14.23510742 32.29052734 C13.90510742 30.64052734 13.57510742 28.99052734 13.23510742 27.29052734 C11.91510742 27.29052734 10.59510742 27.29052734 9.23510742 27.29052734 C9.23510742 28.94052734 9.23510742 30.59052734 9.23510742 32.29052734 C5.93510742 32.29052734 2.63510742 32.29052734 -0.76489258 32.29052734 C0.55510742 31.63052734 1.87510742 30.97052734 3.23510742 30.29052734 C4.5246136 25.45487916 4.75479136 23.43383202 2.67260742 18.85302734 C0.41962811 16.09227798 0.41962811 16.09227798 -2.82739258 15.22802734 C-5.70824755 15.01602713 -5.70824755 15.01602713 -7.45239258 16.47802734 C-8.10208008 17.37521484 -8.10208008 17.37521484 -8.76489258 18.29052734 C-9.63114258 19.15677734 -9.63114258 19.15677734 -10.51489258 20.04052734 C-12.04576255 22.38071951 -12.04576255 22.38071951 -11.82739258 25.85302734 C-11.09329132 29.54697496 -11.09329132 29.54697496 -7.70239258 31.22802734 C-6.24833008 31.75396484 -6.24833008 31.75396484 -4.76489258 32.29052734 C-5.09489258 33.61052734 -5.42489258 34.93052734 -5.76489258 36.29052734 C-8.92605033 34.92069232 -9.75760178 34.30146355 -11.76489258 31.29052734 C-14.34869435 31.04021757 -14.34869435 31.04021757 -16.76489258 31.29052734 C-18.56901225 34.04976919 -18.77761707 35.18024837 -18.38989258 38.54052734 C-18.08051758 39.90177734 -18.08051758 39.90177734 -17.76489258 41.29052734 C-16.77489258 41.62052734 -15.78489258 41.95052734 -14.76489258 42.29052734 C-14.76489258 42.95052734 -14.76489258 43.61052734 -14.76489258 44.29052734 C-17.07489258 44.29052734 -19.38489258 44.29052734 -21.76489258 44.29052734 C-21.8644663 40.28881266 -21.93668866 36.28758693 -21.98461914 32.28491211 C-22.00461886 30.92606021 -22.03182834 29.5672931 -22.06665039 28.20874023 C-22.29526756 19.05396747 -22.30201794 13.29456047 -16.01879883 6.36474609 C-15.46063477 5.90712891 -14.9024707 5.44951172 -14.32739258 4.97802734 C-13.77180664 4.50751953 -13.2162207 4.03701172 -12.64379883 3.55224609 C-8.55104971 0.80389274 -4.88348907 0.0374119 0 0 Z " fill="#162223" transform="translate(30.764892578125,7.70947265625)"/>
<path d="M0 0 C1.13500443 -0.0127597 2.27000885 -0.02551941 3.43940735 -0.03866577 C5.26607185 -0.04200424 5.26607185 -0.04200424 7.12963867 -0.04541016 C9.02162239 -0.05539536 9.02162239 -0.05539536 10.951828 -0.06558228 C13.61907069 -0.07570214 16.28590568 -0.08126554 18.953125 -0.08007812 C22.35254064 -0.07987527 25.75111716 -0.10715145 29.15033436 -0.14162254 C32.4142367 -0.16935881 35.67813458 -0.168044 38.94213867 -0.17041016 C40.75969414 -0.19196671 40.75969414 -0.19196671 42.6139679 -0.21395874 C50.52591931 -0.17141968 56.13493143 0.681106 62.25854492 6.07177734 C62.70456055 6.63896484 63.15057617 7.20615234 63.61010742 7.79052734 C64.30233398 8.64130859 64.30233398 8.64130859 65.00854492 9.50927734 C67.9607123 13.79650131 68.47656671 16.76416819 68.43041992 22.02490234 C68.42397461 23.32041016 68.4175293 24.61591797 68.41088867 25.95068359 C68.39417935 27.31396753 68.37724948 28.67724878 68.36010742 30.04052734 C68.35007082 31.41942719 68.34094616 32.798334 68.33276367 34.17724609 C68.30918836 37.54851617 68.27628012 40.9194337 68.23510742 44.29052734 C67.24510742 44.29052734 66.25510742 44.29052734 65.23510742 44.29052734 C65.3769043 43.72205078 65.51870117 43.15357422 65.66479492 42.56787109 C66.59019922 37.73182101 66.59019922 37.73182101 65.10620117 33.16943359 C62.39556702 29.90172676 60.50966232 28.03554781 56.23510742 27.29052734 C56.11135742 26.32115234 55.98760742 25.35177734 55.86010742 24.35302734 C55.55073242 22.83708984 55.55073242 22.83708984 55.23510742 21.29052734 C54.57510742 20.96052734 53.91510742 20.63052734 53.23510742 20.29052734 C52.74010742 18.80552734 52.74010742 18.80552734 52.23510742 17.29052734 C49.92510742 16.96052734 47.61510742 16.63052734 45.23510742 16.29052734 C42.73434369 19.47331755 41.25323861 21.36583685 41.17260742 25.47802734 C42.49602891 28.98120187 43.93893309 29.68469882 47.23510742 31.29052734 C47.23510742 31.62052734 47.23510742 31.95052734 47.23510742 32.29052734 C45.99760742 32.41427734 44.76010742 32.53802734 43.48510742 32.66552734 C40.35888772 33.04799039 37.94631505 33.59602257 35.23510742 35.29052734 C34.90510742 34.30052734 34.57510742 33.31052734 34.23510742 32.29052734 C33.24510742 31.63052734 32.25510742 30.97052734 31.23510742 30.29052734 C31.23510742 29.30052734 31.23510742 28.31052734 31.23510742 27.29052734 C30.57510742 26.96052734 29.91510742 26.63052734 29.23510742 26.29052734 C29.89510742 28.60052734 30.55510742 30.91052734 31.23510742 33.29052734 C31.89510742 33.29052734 32.55510742 33.29052734 33.23510742 33.29052734 C32.90510742 34.28052734 32.57510742 35.27052734 32.23510742 36.29052734 C29.26510742 33.65052734 26.29510742 31.01052734 23.23510742 28.29052734 C21.97698242 29.23927734 20.71885742 30.18802734 19.42260742 31.16552734 C17.05919521 32.94777262 14.69996557 34.64728858 12.23510742 36.29052734 C12.23510742 35.30052734 12.23510742 34.31052734 12.23510742 33.29052734 C12.89510742 32.96052734 13.55510742 32.63052734 14.23510742 32.29052734 C13.90510742 30.64052734 13.57510742 28.99052734 13.23510742 27.29052734 C11.91510742 27.29052734 10.59510742 27.29052734 9.23510742 27.29052734 C9.23510742 28.94052734 9.23510742 30.59052734 9.23510742 32.29052734 C5.93510742 32.29052734 2.63510742 32.29052734 -0.76489258 32.29052734 C0.55510742 31.63052734 1.87510742 30.97052734 3.23510742 30.29052734 C4.5246136 25.45487916 4.75479136 23.43383202 2.67260742 18.85302734 C0.41962811 16.09227798 0.41962811 16.09227798 -2.82739258 15.22802734 C-5.70824755 15.01602713 -5.70824755 15.01602713 -7.45239258 16.47802734 C-8.10208008 17.37521484 -8.10208008 17.37521484 -8.76489258 18.29052734 C-9.63114258 19.15677734 -9.63114258 19.15677734 -10.51489258 20.04052734 C-12.04576255 22.38071951 -12.04576255 22.38071951 -11.82739258 25.85302734 C-11.09329132 29.54697496 -11.09329132 29.54697496 -7.70239258 31.22802734 C-6.24833008 31.75396484 -6.24833008 31.75396484 -4.76489258 32.29052734 C-5.09489258 33.61052734 -5.42489258 34.93052734 -5.76489258 36.29052734 C-8.92605033 34.92069232 -9.75760178 34.30146355 -11.76489258 31.29052734 C-14.34869435 31.04021757 -14.34869435 31.04021757 -16.76489258 31.29052734 C-18.56901225 34.04976919 -18.77761707 35.18024837 -18.38989258 38.54052734 C-18.08051758 39.90177734 -18.08051758 39.90177734 -17.76489258 41.29052734 C-16.77489258 41.62052734 -15.78489258 41.95052734 -14.76489258 42.29052734 C-14.76489258 42.95052734 -14.76489258 43.61052734 -14.76489258 44.29052734 C-17.07489258 44.29052734 -19.38489258 44.29052734 -21.76489258 44.29052734 C-21.8644663 40.28881266 -21.93668866 36.28758693 -21.98461914 32.28491211 C-22.00461886 30.92606021 -22.03182834 29.5672931 -22.06665039 28.20874023 C-22.29526756 19.05396747 -22.30201794 13.29456047 -16.01879883 6.36474609 C-15.46063477 5.90712891 -14.9024707 5.44951172 -14.32739258 4.97802734 C-13.77180664 4.50751953 -13.2162207 4.03701172 -12.64379883 3.55224609 C-8.55104971 0.80389274 -4.88348907 0.0374119 0 0 Z " fill="#D42238" transform="translate(30.764892578125,7.70947265625)"/>
<path d="M0 0 C1.29531143 -0.00619858 2.59062286 -0.01239716 3.92518616 -0.01878357 C6.65432669 -0.02913293 9.38294406 -0.02470673 12.11206055 -0.01000977 C15.58317643 0.00716744 19.05263506 -0.0163292 22.52356625 -0.05149937 C25.86997043 -0.07893437 29.21598909 -0.06872683 32.5625 -0.0625 C34.41137062 -0.08238731 34.41137062 -0.08238731 36.29759216 -0.10267639 C46.12911502 0.00250997 53.29869476 2.23344618 60.28515625 9.31640625 C66.75178998 16.62513233 66.80492435 26.09292713 66.78125 35.34375 C66.78649185 36.55027725 66.7917337 37.7568045 66.7971344 38.99989319 C66.8035314 41.54052972 66.80224788 44.08119596 66.79370117 46.62182617 C66.78518981 50.48865963 66.81399083 54.35401517 66.84570312 58.22070312 C66.84731543 60.69921831 66.84673705 63.17773609 66.84375 65.65625 C66.85498398 66.8013353 66.86621796 67.94642059 66.87779236 69.12620544 C66.80257584 77.87671674 64.99329869 84.5601477 60.16015625 91.87890625 C53.40768472 98.33126794 46.91914601 100.35463967 37.72265625 100.44140625 C36.68230225 100.46404541 35.64194824 100.48668457 34.57006836 100.51000977 C31.53743321 100.55653253 28.50664049 100.57127258 25.47369385 100.56707764 C23.16125105 100.56634738 20.84903111 100.57827603 18.53662109 100.59033203 C14.19695908 100.60676896 9.85896541 100.58116074 5.51959229 100.53009033 C3.79468337 100.51278193 2.06966111 100.50428618 0.34466553 100.50506592 C-10.7677357 100.48916758 -18.56773025 99.80756162 -27.24365234 92.16455078 C-34.1409952 84.93697605 -34.10022979 75.1200998 -34.05078125 65.75390625 C-34.05365143 64.54500732 -34.05652161 63.3361084 -34.05947876 62.09057617 C-34.06151171 59.54573089 -34.05603596 57.0008697 -34.04345703 54.45605469 C-34.02739351 50.57841791 -34.04333313 46.70182341 -34.0625 42.82421875 C-34.06051743 40.34244563 -34.05667348 37.86067316 -34.05078125 35.37890625 C-34.05685394 34.22865967 -34.06292664 33.07841309 -34.06918335 31.89331055 C-33.9940233 23.21860845 -33.03239385 15.41382806 -27.02734375 8.75390625 C-26.11082031 7.69236328 -26.11082031 7.69236328 -25.17578125 6.609375 C-17.46747279 0.36874756 -9.63451648 -0.03870546 0 0 Z M-24.58984375 12.62890625 C-25.43869141 13.63630859 -25.43869141 13.63630859 -26.3046875 14.6640625 C-28.71968199 18.07305472 -28.82311912 21.16252987 -28.96875 25.21875 C-29.0109668 26.3747168 -29.05318359 27.53068359 -29.09667969 28.72167969 C-29.13567383 29.96981445 -29.17466797 31.21794922 -29.21484375 32.50390625 C-29.25512695 33.7868457 -29.29541016 35.06978516 -29.33691406 36.39160156 C-29.45789797 40.44951781 -29.55894238 44.50776963 -29.65234375 48.56640625 C-29.68247559 49.87432129 -29.71260742 51.18223633 -29.74365234 52.52978516 C-29.81820463 56.29206368 -29.86577231 60.05358373 -29.90234375 63.81640625 C-29.92369385 64.96230225 -29.94504395 66.10819824 -29.96704102 67.28881836 C-30.00348445 76.22673738 -28.95942221 84.30613459 -22.4964447 90.95347595 C-15.67552184 96.91934953 -7.7614519 97.16002693 0.90625 97.09765625 C2.68274681 97.10339661 2.68274681 97.10339661 4.49513245 97.10925293 C6.98870702 97.11196335 9.48231045 97.10466354 11.97583008 97.08789062 C15.77034607 97.06648978 19.56296458 97.08771445 23.35742188 97.11328125 C25.79036872 97.11063745 28.2233144 97.1055114 30.65625 97.09765625 C32.34106728 97.10980164 32.34106728 97.10980164 34.05992126 97.12219238 C42.26424301 97.02563511 49.46328231 95.71089944 55.97265625 90.44140625 C57.54477747 88.68512699 57.54477747 88.68512699 57.34765625 86.56640625 C55.69765625 86.23640625 54.04765625 85.90640625 52.34765625 85.56640625 C54.28020397 83.54183245 55.97924313 82.14534833 58.34765625 80.56640625 C56.69765625 80.56640625 55.04765625 80.56640625 53.34765625 80.56640625 C53.34765625 78.91640625 53.34765625 77.26640625 53.34765625 75.56640625 C52.68765625 75.56640625 52.02765625 75.56640625 51.34765625 75.56640625 C50.68765625 73.91640625 50.02765625 72.26640625 49.34765625 70.56640625 C52.64765625 69.57640625 55.94765625 68.58640625 59.34765625 67.56640625 C59.34765625 69.54640625 59.34765625 71.52640625 59.34765625 73.56640625 C57.86265625 74.06140625 57.86265625 74.06140625 56.34765625 74.56640625 C57.83265625 75.06140625 57.83265625 75.06140625 59.34765625 75.56640625 C60.03515625 77.62890625 60.03515625 77.62890625 60.34765625 79.56640625 C62.07425836 77.83980414 61.51088279 75.51912096 61.54052734 73.16381836 C61.56462173 71.43082741 61.56462173 71.43082741 61.58920288 69.66282654 C61.63357126 64.34951166 61.67519917 59.03634756 61.69775391 53.72290039 C61.71432546 50.23135405 61.75902702 46.74076582 61.81012535 43.24957943 C61.85209769 39.90602318 61.85895826 36.56254499 61.87109375 33.21875 C61.90509781 31.34956154 61.90509781 31.34956154 61.93978882 29.44261169 C61.92197841 22.08486857 61.14128582 17.26437031 56.34765625 11.56640625 C55.72890625 10.80328125 55.11015625 10.04015625 54.47265625 9.25390625 C47.63036858 3.82032486 40.66355878 4.11237591 32.2578125 4.1328125 C30.37007362 4.12494972 30.37007362 4.12494972 28.44419861 4.1169281 C25.78873154 4.11051843 23.13412826 4.11038192 20.47875977 4.12036133 C17.09504765 4.13184601 13.71238 4.11163264 10.32880497 4.08244419 C7.07596996 4.05956652 3.82320901 4.06655394 0.5703125 4.0703125 C-0.63511703 4.05907852 -1.84054657 4.04784454 -3.08250427 4.03627014 C-11.93465862 4.10924134 -18.69547303 5.43083942 -24.58984375 12.62890625 Z " fill="#F4F2F2" transform="translate(37.65234375,3.43359375)"/>
<path d="M0 0 C2.91625567 2.8177847 4.7313436 5.71641943 5.5625 9.6875 C4.82259382 12.7293365 3.35684297 14.01141374 1 16 C3.31 16 5.62 16 8 16 C8.33 14.35 8.66 12.7 9 11 C10.32 11 11.64 11 13 11 C13.66 11.66 14.32 12.32 15 13 C14.625 15.625 14.625 15.625 14 18 C13.34 18 12.68 18 12 18 C12.495 18.99 12.495 18.99 13 20 C15.97 17.36 18.94 14.72 22 12 C28.75 17.75 28.75 17.75 31 20 C30.7578125 21.9453125 30.7578125 21.9453125 30.125 24.125 C29.92132813 24.84945312 29.71765625 25.57390625 29.5078125 26.3203125 C29.25644531 27.15175781 29.25644531 27.15175781 29 28 C27.35 28 25.7 28 24 28 C24 26.68 24 25.36 24 24 C22.68 24 21.36 24 20 24 C20 25.32 20 26.64 20 28 C16.75328272 31.24671728 12.777896 32.51486642 8.56762695 34.25854492 C-0.72346889 38.15205055 -8.89805308 42.78150709 -16.70703125 49.23828125 C-19 51 -19 51 -21 51 C-21.33 52.98 -21.66 54.96 -22 57 C-22.33 57 -22.66 57 -23 57 C-23 47.76 -23 38.52 -23 29 C-20.36 29 -17.72 29 -15 29 C-15 28.34 -15 27.68 -15 27 C-16.32 26.67 -17.64 26.34 -19 26 C-19.90077361 22.47879408 -20.21686761 20.55421722 -18.875 17.125 C-17 15 -17 15 -14.5625 14.375 C-11.0455411 15.23279485 -10.07596159 17.1366047 -8 20 C-7.34 20 -6.68 20 -6 20 C-5.67 19.01 -5.34 18.02 -5 17 C-5.763125 16.9175 -6.52625 16.835 -7.3125 16.75 C-10 16 -10 16 -11.8125 14.25 C-13.31390838 11.40522623 -13.59231372 10.18368622 -13 7 C-9.60711818 1.08130616 -7.18269122 -2.25339332 0 0 Z " fill="#0B2425" transform="translate(31,23)"/>
<path d="M0 0 C-0.875 4.875 -0.875 4.875 -2 6 C-1.01 6.33 -0.02 6.66 1 7 C1 8.98 1 10.96 1 13 C0.67 13 0.34 13 0 13 C0 11.35 0 9.7 0 8 C-3.3 8.99 -6.6 9.98 -10 11 C-9.34 12.65 -8.68 14.3 -8 16 C-7.34 16 -6.68 16 -6 16 C-6 17.65 -6 19.3 -6 21 C-4.35 21 -2.7 21 -1 21 C-1.99 21.66 -2.98 22.32 -4 23 C-5.01868662 23.98095748 -6.02351983 24.97702078 -7 26 C-5.35 26.33 -3.7 26.66 -2 27 C-3.51339948 31.23751854 -6.18991209 32.80187236 -10 35 C-15.99144039 37.74188667 -22.16731902 37.25211634 -28.6171875 37.1953125 C-29.82948029 37.1924826 -31.04177307 37.18965271 -32.290802 37.18673706 C-36.15230289 37.17556667 -40.01356953 37.15046737 -43.875 37.125 C-46.49739248 37.11496616 -49.1197886 37.10584102 -51.7421875 37.09765625 C-58.16153789 37.07563758 -64.5807522 37.04219098 -71 37 C-71 36.67 -71 36.34 -71 36 C-60.605 35.505 -60.605 35.505 -50 35 C-49.34 33.35 -48.68 31.7 -48 30 C-45.24933823 26.43518887 -42.12947833 23.23362896 -39 20 C-38.34128906 19.30390625 -37.68257812 18.6078125 -37.00390625 17.890625 C-28.10823732 9.22038238 -12.73043155 0 0 0 Z " fill="#0E2525" transform="translate(97,63)"/>
<path d="M0 0 C1.70273323 -0.01913956 1.70273323 -0.01913956 3.43986511 -0.03866577 C4.66796402 -0.04089142 5.89606293 -0.04311707 7.16137695 -0.04541016 C9.05760551 -0.05539536 9.05760551 -0.05539536 10.99214172 -0.06558228 C13.67133625 -0.07571936 16.35012525 -0.08126307 19.02929688 -0.08007812 C22.44446392 -0.07987567 25.85879191 -0.10709812 29.2737608 -0.14162254 C32.5487671 -0.16937072 35.82376917 -0.16804483 39.09887695 -0.17041016 C40.92584358 -0.19196671 40.92584358 -0.19196671 42.78971863 -0.21395874 C50.72328716 -0.17154271 56.34510544 0.66624924 62.4855957 6.07177734 C62.93161133 6.63896484 63.37762695 7.20615234 63.8371582 7.79052734 C64.52938477 8.64130859 64.52938477 8.64130859 65.2355957 9.50927734 C68.18776309 13.79650131 68.70361749 16.76416819 68.6574707 22.02490234 C68.65102539 23.32041016 68.64458008 24.61591797 68.63793945 25.95068359 C68.62123013 27.31396753 68.60430026 28.67724878 68.5871582 30.04052734 C68.5771216 31.41942719 68.56799694 32.798334 68.55981445 34.17724609 C68.53623914 37.54851617 68.5033309 40.9194337 68.4621582 44.29052734 C67.4721582 44.29052734 66.4821582 44.29052734 65.4621582 44.29052734 C65.60395508 43.72205078 65.74575195 43.15357422 65.8918457 42.56787109 C66.81725 37.73182101 66.81725 37.73182101 65.33325195 33.16943359 C62.6226178 29.90172676 60.7367131 28.03554781 56.4621582 27.29052734 C56.3384082 26.32115234 56.2146582 25.35177734 56.0871582 24.35302734 C55.7777832 22.83708984 55.7777832 22.83708984 55.4621582 21.29052734 C54.8021582 20.96052734 54.1421582 20.63052734 53.4621582 20.29052734 C52.9671582 18.80552734 52.9671582 18.80552734 52.4621582 17.29052734 C47.84708047 16.24838043 47.84708047 16.24838043 43.4621582 17.29052734 C43.4621582 16.30052734 43.4621582 15.31052734 43.4621582 14.29052734 C42.4721582 14.62052734 41.4821582 14.95052734 40.4621582 15.29052734 C39.24345892 17.7950025 39.24345892 17.7950025 38.4621582 20.29052734 C37.2659082 20.20802734 36.0696582 20.12552734 34.8371582 20.04052734 C30.21281184 20.00761385 28.01983002 21.44438989 24.4621582 24.29052734 C20.62574337 22.78336437 18.60225002 20.80639247 16.4621582 17.29052734 C15.67790184 13.34571782 15.88822591 10.2317763 18.0246582 6.72802734 C21.44722899 4.70958816 23.68950251 5.41991449 27.4621582 6.29052734 C27.4621582 5.30052734 27.4621582 4.31052734 27.4621582 3.29052734 C28.1221582 2.96052734 28.7821582 2.63052734 29.4621582 2.29052734 C16.9221582 2.29052734 4.3821582 2.29052734 -8.5378418 2.29052734 C-5.15588252 0.03588783 -3.96558091 0.03024492 0 0 Z " fill="#D0283E" transform="translate(30.537841796875,7.70947265625)"/>
<path d="M0 0 C0 0.33 0 0.66 0 1 C-0.95777344 1.20753906 -1.91554688 1.41507813 -2.90234375 1.62890625 C-29.63987649 7.6969747 -51.13700355 20.20428658 -67 43 C-70.61941735 41.49760034 -73.7321794 40.17854707 -77 38 C-70.02597089 22.67774886 -51.76489238 12.53585971 -37 6 C-32.71524834 4.39945255 -28.4282196 3.13207309 -24 2 C-23.33484375 1.77699219 -22.6696875 1.55398437 -21.984375 1.32421875 C-14.96544847 -0.91878603 -7.27800439 -0.15898553 0 0 Z " fill="#DBDFDF" transform="translate(93,54)"/>
<path d="M0 0 C0 0.99 0 1.98 0 3 C-0.77601562 3.20753906 -1.55203125 3.41507813 -2.3515625 3.62890625 C-21.08432418 8.97154353 -40.72459105 19.28817081 -50.8125 36.6875 C-52.12109375 38.60546875 -52.12109375 38.60546875 -54 40 C-58.73807554 40.6662086 -63.24954631 40.4685379 -68 40 C-52.53752145 18.70369255 -32.07101771 4.9367147 -5.98046875 0.2265625 C-4 0 -4 0 0 0 Z " fill="#DA2539" transform="translate(97,57)"/>
<path d="M0 0 C2.91625567 2.8177847 4.7313436 5.71641943 5.5625 9.6875 C4.82259382 12.7293365 3.35684297 14.01141374 1 16 C2.093125 16.2475 3.18625 16.495 4.3125 16.75 C8 18 8 18 10 19.9375 C11 22 11 22 10 25 C9.05125 25.103125 8.1025 25.20625 7.125 25.3125 C3.70892499 25.68539295 3.70892499 25.68539295 2 29 C2 27.35 2 25.7 2 24 C4.31 24 6.62 24 9 24 C9 23.34 9 22.68 9 22 C8.01 21.67 7.02 21.34 6 21 C6 20.34 6 19.68 6 19 C0.77710276 19.409639 -2.34664603 20.13174285 -6 24 C-6.87943404 26.63460948 -6.87943404 26.63460948 -7 29 C-6.01 29 -5.02 29 -4 29 C-4 28.01 -4 27.02 -4 26 C-3.34 26 -2.68 26 -2 26 C-2 27.65 -2 29.3 -2 31 C-2.67546875 31.12117188 -3.3509375 31.24234375 -4.046875 31.3671875 C-5.38492187 31.61855469 -5.38492187 31.61855469 -6.75 31.875 C-8.07257812 32.11863281 -8.07257812 32.11863281 -9.421875 32.3671875 C-12.000952 32.88927341 -12.000952 32.88927341 -14.140625 34.1328125 C-16 35 -16 35 -19 34 C-18.34 33.34 -17.68 32.68 -17 32 C-17.99 32 -18.98 32 -20 32 C-20.66 32.66 -21.32 33.32 -22 34 C-22 32.35 -22 30.7 -22 29 C-19.69 29 -17.38 29 -15 29 C-15 28.34 -15 27.68 -15 27 C-16.32 26.67 -17.64 26.34 -19 26 C-19.90077361 22.47879408 -20.21686761 20.55421722 -18.875 17.125 C-17 15 -17 15 -14.5625 14.375 C-11.0455411 15.23279485 -10.07596159 17.1366047 -8 20 C-7.34 20 -6.68 20 -6 20 C-5.67 19.01 -5.34 18.02 -5 17 C-5.763125 16.9175 -6.52625 16.835 -7.3125 16.75 C-10 16 -10 16 -11.8125 14.25 C-13.31390838 11.40522623 -13.59231372 10.18368622 -13 7 C-9.60711818 1.08130616 -7.18269122 -2.25339332 0 0 Z " fill="#0F1F20" transform="translate(31,23)"/>
<path d="M0 0 C4.75 0.875 4.75 0.875 7 2 C7 1.34 7 0.68 7 0 C7.66 0 8.32 0 9 0 C9.061875 1.03125 9.12375 2.0625 9.1875 3.125 C10.18548657 7.88462827 11.70490867 9.53592963 15 13 C19.41522109 11.73025028 19.41522109 11.73025028 23 9 C25.625 8.375 25.625 8.375 28 8 C28 8.66 28 9.32 28 10 C28.99 10 29.98 10 31 10 C31.33 7.36 31.66 4.72 32 2 C32.495 2.99 32.495 2.99 33 4 C33.99 4 34.98 4 36 4 C36.125 6.875 36.125 6.875 36 10 C35.34 10.66 34.68 11.32 34 12 C33.93051435 15.00293071 33.93051435 15.00293071 35 18 C37.46115547 19.84434349 37.46115547 19.84434349 40 21 C40 21.33 40 21.66 40 22 C38.7625 22.12375 37.525 22.2475 36.25 22.375 C33.1237803 22.75746305 30.71120763 23.30549523 28 25 C27.505 23.515 27.505 23.515 27 22 C26.01 21.34 25.02 20.68 24 20 C24 19.01 24 18.02 24 17 C23.34 16.67 22.68 16.34 22 16 C22.66 18.31 23.32 20.62 24 23 C24.66 23 25.32 23 26 23 C25.505 24.485 25.505 24.485 25 26 C20.545 22.04 20.545 22.04 16 18 C14.741875 18.94875 13.48375 19.8975 12.1875 20.875 C9.82408779 22.65724528 7.46485814 24.35676124 5 26 C5 25.01 5 24.02 5 23 C5.66 22.67 6.32 22.34 7 22 C6.67 20.35 6.34 18.7 6 17 C4.68 17 3.36 17 2 17 C2 18.65 2 20.3 2 22 C-1.3 22 -4.6 22 -8 22 C-6.68 21.34 -5.36 20.68 -4 20 C-3.08400573 17.59595262 -3.08400573 17.59595262 -2.75 14.875 C-2.60046875 13.96492188 -2.4509375 13.05484375 -2.296875 12.1171875 C-2.19890625 11.41851562 -2.1009375 10.71984375 -2 10 C1 9 1 9 4 10 C4 9.01 4 8.02 4 7 C3.01 7 2.02 7 1 7 C0.67 6.01 0.34 5.02 0 4 C0.99 4 1.98 4 3 4 C3 3.01 3 2.02 3 1 C2.01 0.67 1.02 0.34 0 0 Z " fill="#C02036" transform="translate(38,18)"/>
<path d="M0 0 C2.31 0.33 4.62 0.66 7 1 C7.103125 1.639375 7.20625 2.27875 7.3125 2.9375 C7.6528125 3.9584375 7.6528125 3.9584375 8 5 C8.99 5.33 9.98 5.66 11 6 C11 7.98 11 9.96 11 12 C13.475 12.495 13.475 12.495 16 13 C16.33 13.99 16.66 14.98 17 16 C17.66 16.33 18.32 16.66 19 17 C18.34 17.66 17.68 18.32 17 19 C17.99 19.33 18.98 19.66 20 20 C20 21.98 20 23.96 20 26 C18.35 26 16.7 26 15 26 C15 25.34 15 24.68 15 24 C12.55519921 24.18828772 12.55519921 24.18828772 10 25 C8.63979849 26.96758273 8.63979849 26.96758273 8 29 C4 29 0 29 -4 29 C-4 28.01 -4 27.02 -4 26 C-4.99 26 -5.98 26 -7 26 C-7 26.66 -7 27.32 -7 28 C-7.99 28 -8.98 28 -10 28 C-9.7117641 24.63724781 -8.94923335 22.92702293 -7 20.125 C-3.67246261 17.76799435 -3.04121737 17.75661192 0.8125 18.1875 C2.21318736 18.43199192 3.61135566 18.69443774 5 19 C5.33 17.68 5.66 16.36 6 15 C3.04198085 13.81696349 3.04198085 13.81696349 -0.0625 14.125 C-1.031875 14.08375 -2.00125 14.0425 -3 14 C-5 11 -5 11 -4.875 8.6875 C-3.78707757 5.34602397 -2.04627798 2.83838559 0 0 Z " fill="#1E3031" transform="translate(76,23)"/>
<path d="M0 0 C0 0.66 0 1.32 0 2 C-4.95 3.65 -9.9 5.3 -15 7 C-14.01 7.66 -13.02 8.32 -12 9 C-12.96099609 9.56654297 -12.96099609 9.56654297 -13.94140625 10.14453125 C-23.18363199 16.02594763 -28.17263473 23.86873899 -32 34 C-35.96 34 -39.92 34 -44 34 C-43.01 33.01 -42.02 32.02 -41 31 C-40.67 31.66 -40.34 32.32 -40 33 C-39.01 32.01 -38.02 31.02 -37 30 C-37.33 29.67 -37.66 29.34 -38 29 C-38.66 29.33 -39.32 29.66 -40 30 C-39.49396008 27.83125748 -39.00016187 26.00032373 -38 24 C-41.28788824 27.11016455 -43.83735988 30.01618925 -46 34 C-47.32 33.67 -48.64 33.34 -50 33 C-38.85192253 17.83718081 -20.24320592 0 0 0 Z " fill="#F0F3F3" transform="translate(97,63)"/>
<path d="M0 0 C0.86496094 0.01804688 1.72992188 0.03609375 2.62109375 0.0546875 C3.26175781 0.07789063 3.90242188 0.10109375 4.5625 0.125 C1.35035216 2.2664319 -1.6284106 3.35642369 -5.25 4.6875 C-20.07484443 10.4152808 -34.17716588 20.24834621 -44.09765625 32.69140625 C-44.53980469 33.16449219 -44.98195313 33.63757813 -45.4375 34.125 C-46.0975 34.125 -46.7575 34.125 -47.4375 34.125 C-49.04244027 30.61419317 -49.83674965 27.98639959 -49.4375 24.125 C-40.51860645 12.13434251 -14.91748312 -0.40869817 0 0 Z " fill="#E9ECEC" transform="translate(60.4375,53.875)"/>
<path d="M0 0 C2 1 2 1 3 2 C3.99 2 4.98 2 6 2 C8 5 8 5 7.625 7.6875 C7.315625 8.8321875 7.315625 8.8321875 7 10 C6.01 10.33 5.02 10.66 4 11 C4 11.99 4 12.98 4 14 C3.01 14.495 3.01 14.495 2 15 C2.66 15.33 3.32 15.66 4 16 C3 19 3 19 0.8125 20.1875 C-3.97321402 21.57003961 -8.20076048 21.12923283 -13 20 C-12.60404157 18.51515588 -12.18249294 17.0371169 -11.75 15.5625 C-11.40195313 14.32693359 -11.40195313 14.32693359 -11.046875 13.06640625 C-10.70140625 12.38449219 -10.3559375 11.70257813 -10 11 C-7.953125 10.390625 -7.953125 10.390625 -6 10 C-5.29373761 8.01363702 -4.63106429 6.01151741 -4 4 C-1.875 1.625 -1.875 1.625 0 0 Z " fill="#1F3231" transform="translate(81,77)"/>
<path d="M0 0 C2.31 0.33 4.62 0.66 7 1 C7.103125 1.639375 7.20625 2.27875 7.3125 2.9375 C7.6528125 3.9584375 7.6528125 3.9584375 8 5 C8.99 5.33 9.98 5.66 11 6 C11 7.98 11 9.96 11 12 C13.475 12.495 13.475 12.495 16 13 C16.33 13.99 16.66 14.98 17 16 C17.66 16.33 18.32 16.66 19 17 C18.01 17.33 17.02 17.66 16 18 C15.34 17.01 14.68 16.02 14 15 C10.75791433 15.35049575 9.38472296 15.56221181 7.1875 18.0625 C6.795625 18.701875 6.40375 19.34125 6 20 C5.4375 18.0625 5.4375 18.0625 5 16 C5.33 15.67 5.66 15.34 6 15 C3.04198085 13.81696349 3.04198085 13.81696349 -0.0625 14.125 C-1.031875 14.08375 -2.00125 14.0425 -3 14 C-5 11 -5 11 -4.875 8.6875 C-3.78707757 5.34602397 -2.04627798 2.83838559 0 0 Z " fill="#312D2F" transform="translate(76,23)"/>
<path d="M0 0 C3.4375 0.9375 3.4375 0.9375 5.375 2 C7.16578629 5.26555148 7.27116436 8.3960421 6.4375 11.9375 C4.72083282 14.58465054 2.71791632 16.76567494 0.4375 18.9375 C-3.34470155 17.17353205 -5.3500679 15.57220989 -7.5625 11.9375 C-8.34675637 7.99269047 -8.13643229 4.87874896 -6 1.375 C-3.5625 -0.0625 -3.5625 -0.0625 0 0 Z " fill="#FAF3F3" transform="translate(54.5625,13.0625)"/>
<path d="M0 0 C0 0.99 0 1.98 0 3 C0.66 3.33 1.32 3.66 2 4 C1.20335938 4.7734375 0.40671875 5.546875 -0.4140625 6.34375 C-1.48489226 7.39530685 -2.55516782 8.44742824 -3.625 9.5 C-4.1833252 10.04301758 -4.74165039 10.58603516 -5.31689453 11.14550781 C-8.3719485 14.17104003 -10.7374041 16.98891355 -12.875 20.75 C-14.15625 22.640625 -14.15625 22.640625 -16 24 C-20.73835174 24.66166173 -25.24976902 24.46851593 -30 24 C-29.06558465 22.72689688 -28.12732889 21.456612 -27.1875 20.1875 C-26.66542969 19.47980469 -26.14335938 18.77210937 -25.60546875 18.04296875 C-24.16871123 16.21468607 -22.68184237 14.60103312 -21 13 C-21.33 14.32 -21.66 15.64 -22 17 C-20.35 17.33 -18.7 17.66 -17 18 C-14.63019987 15.04622502 -14.63019987 15.04622502 -15 11 C-13.6696875 10.938125 -13.6696875 10.938125 -12.3125 10.875 C-7.71833541 9.66144709 -6.64653088 7.89195718 -4 4 C-4 3.01 -4 2.02 -4 1 C-2 0 -2 0 0 0 Z " fill="#A51827" transform="translate(59,73)"/>
<path d="M0 0 C-2.48208946 3.01515566 -4.60351422 3.59643591 -8.375 4.375 C-21.85253476 7.54618465 -34.19809034 13.29451716 -45.23046875 21.69921875 C-47.63181491 23.46444672 -50.16226786 24.16157914 -53 25 C-42.59807273 13.92698065 -16.26987453 -5.07065596 0 0 Z " fill="#212527" transform="translate(92,56)"/>
<path d="M0 0 C-2.33809781 2.33809781 -4.15926777 2.90967341 -7.25 4.0625 C-15.77692959 7.51852936 -23.66288417 12.45366265 -30.78515625 18.27734375 C-33 20 -33 20 -35 20 C-35 17.69 -35 15.38 -35 13 C-32.00429109 11.38772611 -29.00269783 9.78671462 -26 8.1875 C-24.74123047 7.50977539 -24.74123047 7.50977539 -23.45703125 6.81835938 C-15.6034362 2.64803952 -9.02543889 -0.48350565 0 0 Z " fill="#E8EBEB" transform="translate(45,54)"/>
<path d="M0 0 C0.99 1.485 0.99 1.485 2 3 C3.65 2.67 5.3 2.34 7 2 C6.01 3.485 6.01 3.485 5 5 C9.07964281 3.69844994 9.07964281 3.69844994 13 2 C15.6723621 1.86584528 18.32250488 1.95681459 21 2 C18.01353231 3.99097846 15.40312738 4.94124926 12 6 C12.33 7.32 12.66 8.64 13 10 C11.56705502 10.84114171 10.12845595 11.67265687 8.6875 12.5 C7.88699219 12.9640625 7.08648437 13.428125 6.26171875 13.90625 C4 15 4 15 1 15 C1 19.29 1 23.58 1 28 C0.67 28 0.34 28 0 28 C0 18.76 0 9.52 0 0 Z " fill="#4A5959" transform="translate(8,52)"/>
<path d="M0 0 C0.33 0.66 0.66 1.32 1 2 C1.99 2 2.98 2 4 2 C4.125 4.875 4.125 4.875 4 8 C3.34 8.66 2.68 9.32 2 10 C1.93051435 13.00293071 1.93051435 13.00293071 3 16 C5.46115547 17.84434349 5.46115547 17.84434349 8 19 C8 19.33 8 19.66 8 20 C6.7625 20.12375 5.525 20.2475 4.25 20.375 C1.1237803 20.75746305 -1.28879237 21.30549523 -4 23 C-4.33 22.01 -4.66 21.02 -5 20 C-5.99 19.34 -6.98 18.68 -8 18 C-8.875 15.5625 -8.875 15.5625 -9 13 C-7.527119 10.90695858 -6.28701727 10.1217649 -3.9375 9.125 C-1.24574451 7.5620452 -0.8572043 5.92878135 0 3 C0 2.01 0 1.02 0 0 Z " fill="#C81E32" transform="translate(70,20)"/>
<path d="M0 0 C0 1.98 0 3.96 0 6 C-0.99 6.495 -0.99 6.495 -2 7 C-1.34 7.33 -0.68 7.66 0 8 C1.3125 10.125 1.3125 10.125 2 13 C1.268049 15.54339807 0.21219108 17.62224058 -1 20 C-3.31 19.67 -5.62 19.34 -8 19 C-6.25 15.125 -6.25 15.125 -4 14 C-4.66 13.67 -5.32 13.34 -6 13 C-6 11.35 -6 9.7 -6 8 C-6.66 8 -7.32 8 -8 8 C-8.66 6.35 -9.32 4.7 -10 3 C-6.27034861 0.96564469 -4.33094958 0 0 0 Z " fill="#5F7170" transform="translate(97,71)"/>
<path d="M0 0 C2.5 0.625 2.5 0.625 4.375 2.875 C5.56567925 5.78554927 5.66095535 6.77538233 4.5 9.625 C5.16 9.955 5.82 10.285 6.5 10.625 C6.5 11.945 6.5 13.265 6.5 14.625 C4.19 14.625 1.88 14.625 -0.5 14.625 C-0.5 13.965 -0.5 13.305 -0.5 12.625 C-1.82 12.295 -3.14 11.965 -4.5 11.625 C-5.40077361 8.10379408 -5.71686761 6.17921722 -4.375 2.75 C-2.5 0.625 -2.5 0.625 0 0 Z " fill="#302126" transform="translate(16.5,37.375)"/>
<path d="M0 0 C2 1 2 1 3 2 C3.99 2 4.98 2 6 2 C8 5 8 5 7.625 7.6875 C7.41875 8.450625 7.2125 9.21375 7 10 C6.01 10.33 5.02 10.66 4 11 C4 11.99 4 12.98 4 14 C-2.52307692 13.38461538 -2.52307692 13.38461538 -4.9375 11.4375 C-5.4634375 10.7259375 -5.4634375 10.7259375 -6 10 C-4.79157144 5.56909529 -3.48331435 3.01887244 0 0 Z " fill="#324746" transform="translate(81,77)"/>
<path d="M0 0 C-0.66 1.32 -1.32 2.64 -2 4 C-1.01 4.33 -0.02 4.66 1 5 C1 6.98 1 8.96 1 11 C0.67 11 0.34 11 0 11 C0 9.35 0 7.7 0 6 C-4.95 7.485 -4.95 7.485 -10 9 C-8.88145414 12.72614153 -8.88145414 12.72614153 -6 15 C-8.97 14.505 -8.97 14.505 -12 14 C-12.99 15.485 -12.99 15.485 -14 17 C-15 10.25 -15 10.25 -15 8 C-14.34 7.67 -13.68 7.34 -13 7 C-13.99 6.34 -14.98 5.68 -16 5 C-14.58521865 4.35004703 -13.16808513 3.70521278 -11.75 3.0625 C-10.96109375 2.70285156 -10.1721875 2.34320313 -9.359375 1.97265625 C-6.08709972 0.62365535 -3.54843083 0 0 0 Z " fill="#1E3332" transform="translate(97,65)"/>
<path d="M0 0 C0.66 0 1.32 0 2 0 C2 1.32 2 2.64 2 4 C2.66 3.67 3.32 3.34 4 3 C3.67 4.65 3.34 6.3 3 8 C1.68 8 0.36 8 -1 8 C-1.99 8.495 -1.99 8.495 -3 9 C-0.36 9.33 2.28 9.66 5 10 C5 10.33 5 10.66 5 11 C11.27 11.33 17.54 11.66 24 12 C24 12.33 24 12.66 24 13 C5.85 13 -12.3 13 -31 13 C-31 12.67 -31 12.34 -31 12 C-30.07719238 11.96241577 -30.07719238 11.96241577 -29.13574219 11.92407227 C-26.34029844 11.80781513 -23.54516702 11.68522358 -20.75 11.5625 C-19.78191406 11.52318359 -18.81382813 11.48386719 -17.81640625 11.44335938 C-16.88183594 11.40146484 -15.94726562 11.35957031 -14.984375 11.31640625 C-14.12553711 11.27974854 -13.26669922 11.24309082 -12.38183594 11.20532227 C-10.11717819 11.01010115 -8.14336664 10.75998067 -6 10 C-5.27095914 8.35965807 -4.61344757 6.68698082 -4 5 C-2 2.1875 -2 2.1875 0 0 Z " fill="#627071" transform="translate(57,87)"/>
<path d="M0 0 C0 0.33 0 0.66 0 1 C-1.48886719 1.34611328 -1.48886719 1.34611328 -3.0078125 1.69921875 C-12.26115739 3.90261424 -21.10914275 6.61036067 -30 10 C-30.28875 9.360625 -30.5775 8.72125 -30.875 8.0625 C-31.82823451 5.84793921 -31.82823451 5.84793921 -34 5 C-22.38851762 1.2370196 -12.21396277 -0.74881243 0 0 Z " fill="#E4E8E8" transform="translate(93,54)"/>
<path d="M0 0 C0.99 0 1.98 0 3 0 C3 9.9 3 19.8 3 30 C2.34 30.33 1.68 30.66 1 31 C1 29.68 1 28.36 1 27 C0.01 26.67 -0.98 26.34 -2 26 C-1.01 25.34 -0.02 24.68 1 24 C1.73343428 20.93443402 1.73343428 20.93443402 2 18 C0.68 17.67 -0.64 17.34 -2 17 C-1.34 16.34 -0.68 15.68 0 15 C0.33 13.68 0.66 12.36 1 11 C-2.96 11.99 -6.92 12.98 -11 14 C-11 13.34 -11 12.68 -11 12 C-8.09399739 10.74335022 -6.20395416 10 -3 10 C-3 9.34 -3 8.68 -3 8 C-1.68 8 -0.36 8 1 8 C1 7.01 1 6.02 1 5 C-1.31 5.33 -3.62 5.66 -6 6 C-6.33 5.34 -6.66 4.68 -7 4 C-3.535 3.505 -3.535 3.505 0 3 C0 2.01 0 1.02 0 0 Z " fill="#182627" transform="translate(96,52)"/>
<path d="M0 0 C0.33 0 0.66 0 1 0 C1 1.65 1 3.3 1 5 C1.99 5.33 2.98 5.66 4 6 C3.34 7.32 2.68 8.64 2 10 C-1.3 10 -4.6 10 -8 10 C-8 10.66 -8 11.32 -8 12 C-8.61875 12.45375 -9.2375 12.9075 -9.875 13.375 C-12.13442278 15.10279389 -12.92750301 16.40813228 -14 19 C-14.66 18.01 -15.32 17.02 -16 16 C-16.66 17.32 -17.32 18.64 -18 20 C-19.125 13.25 -19.125 13.25 -18 11 C-17.34 11 -16.68 11 -16 11 C-15.67 10.34 -15.34 9.68 -15 9 C-15.66 9 -16.32 9 -17 9 C-19 6 -19 6 -19 2 C-18.01 2.33 -17.02 2.66 -16 3 C-16 3.99 -16 4.98 -16 6 C-13.525 6.99 -13.525 6.99 -11 8 C-11.99 8.495 -11.99 8.495 -13 9 C-13 9.66 -13 10.32 -13 11 C-12.484375 10.525625 -11.96875 10.05125 -11.4375 9.5625 C-8.33217325 7.57190593 -5.63367496 7.34939182 -2 7 C-2.99 6.34 -3.98 5.68 -5 5 C-3.35 5 -1.7 5 0 5 C0 3.35 0 1.7 0 0 Z " fill="#15191C" transform="translate(79,32)"/>
<path d="M0 0 C1.9375 0.6875 1.9375 0.6875 4 2 C4.75 4.625 4.75 4.625 5 7 C4.01 7.33 3.02 7.66 2 8 C2.33 8.70125 2.66 9.4025 3 10.125 C4.09044562 13.26003116 4.15322643 15.70563182 4 19 C0.7 19 -2.6 19 -6 19 C-6 17.68 -6 16.36 -6 15 C-4.02 14.67 -2.04 14.34 0 14 C-0.495 12.8553125 -0.495 12.8553125 -1 11.6875 C-2.43140942 7.84058718 -1.92700027 4.91400113 -1 1 C-0.67 0.67 -0.34 0.34 0 0 Z " fill="#2D2025" transform="translate(41,33)"/>
<path d="M0 0 C2.53926173 1.82671379 4.9050512 3.66877878 7 6 C7.4375 9.375 7.4375 9.375 7 12 C5.35 12 3.7 12 2 12 C2 10.68 2 9.36 2 8 C0.68 8 -0.64 8 -2 8 C-2 9.32 -2 10.64 -2 12 C-3.32 12 -4.64 12 -6 12 C-6.375 8.8125 -6.375 8.8125 -6 5 C-4.18811972 2.8596502 -2.34198833 1.61011698 0 0 Z " fill="#F1F4F3" transform="translate(53,39)"/>
<path d="M0 0 C1.65 0.33 3.3 0.66 5 1 C5.33 2.32 5.66 3.64 6 5 C6.66 5 7.32 5 8 5 C8.125 7.375 8.125 7.375 8 10 C7.34 10.66 6.68 11.32 6 12 C5.01 12 4.02 12 3 12 C3 10 3 8 3 6 C2.34 6 1.68 6 1 6 C1 8.31 1 10.62 1 13 C-2.875 11.125 -2.875 11.125 -4 10 C-4.04063832 8.33382885 -4.042721 6.66611905 -4 5 C-3.01 5 -2.02 5 -1 5 C-0.67 3.35 -0.34 1.7 0 0 Z " fill="#F4F7F7" transform="translate(25,25)"/>
<path d="M0 0 C0.33 0.66 0.66 1.32 1 2 C1.66 2.33 2.32 2.66 3 3 C1 5 1 5 -1.0625 5.8125 C-3.24533624 6.86446713 -3.24533624 6.86446713 -3.8125 9.4375 C-4.17387821 12.11939103 -4.17387821 12.11939103 -3 15 C-2.34 15 -1.68 15 -1 15 C-1.33 15.99 -1.66 16.98 -2 18 C-5.63 15.03 -9.26 12.06 -13 9 C-9.03140016 4.0392502 -6.25144246 1.15767453 0 0 Z " fill="#BF2034" transform="translate(65,26)"/>
<path d="M0 0 C1.9375 1.375 1.9375 1.375 3 3 C3 3.66 3 4.32 3 5 C0.69 5 -1.62 5 -4 5 C-4 6.65 -4 8.3 -4 10 C-4.99 10 -5.98 10 -7 10 C-7 9.01 -7 8.02 -7 7 C-7.99 7 -8.98 7 -10 7 C-10 7.99 -10 8.98 -10 10 C-10.99 10 -11.98 10 -13 10 C-13.375 7.8125 -13.375 7.8125 -13 5 C-8.91894287 0.52079096 -6.25021985 -0.94342941 0 0 Z " fill="#314344" transform="translate(37,42)"/>
<path d="M0 0 C2.99220268 1.36370299 5.29026529 2.94908083 7.75 5.125 C8.67039062 5.93324219 8.67039062 5.93324219 9.609375 6.7578125 C10.06828125 7.16773438 10.5271875 7.57765625 11 8 C10.67 9.65 10.34 11.3 10 13 C9.7525 12.38125 9.505 11.7625 9.25 11.125 C7.79371361 8.64931313 6.62187494 8.04874998 4 7 C3.29733387 9.97574276 3.29733387 9.97574276 3 13 C-0.3 13 -3.6 13 -7 13 C-5.68 12.34 -4.36 11.68 -3 11 C-2.12010857 8.62786063 -2.12010857 8.62786063 -1.8125 5.9375 C-1.06440678 1.06440678 -1.06440678 1.06440678 0 0 Z " fill="#CD2036" transform="translate(37,27)"/>
<path d="M0 0 C0.66 1.32 1.32 2.64 2 4 C-2.29 6.64 -6.58 9.28 -11 12 C-11.99 11.34 -12.98 10.68 -14 10 C-12.68 8.68 -11.36 7.36 -10 6 C-10.99 6 -11.98 6 -13 6 C-13 5.34 -13 4.68 -13 4 C-4.738041 -0.59225513 -4.738041 -0.59225513 0 0 Z " fill="#EFF1F1" transform="translate(61,60)"/>
<path d="M0 0 C2.91625567 2.8177847 4.7313436 5.71641943 5.5625 9.6875 C4.82259382 12.7293365 3.35684297 14.01141374 1 16 C-0.32 15.34 -1.64 14.68 -3 14 C-2.360625 13.773125 -1.72125 13.54625 -1.0625 13.3125 C1.27193661 12.14749104 1.27193661 12.14749104 1.75 9.375 C1.8325 8.59125 1.915 7.8075 2 7 C1.34 7 0.68 7 0 7 C-0.66 5.68 -1.32 4.36 -2 3 C-3.32 3 -4.64 3 -6 3 C-6.33 4.32 -6.66 5.64 -7 7 C-7.99 7 -8.98 7 -10 7 C-10.33 8.32 -10.66 9.64 -11 11 C-11.75 8.875 -11.75 8.875 -12 6 C-8.70416106 0.09021982 -6.75193151 -2.11825302 0 0 Z " fill="#291A1E" transform="translate(31,23)"/>
<path d="M0 0 C2.125 0.9375 2.125 0.9375 4 2 C2.75 3.5 2.75 3.5 1 5 C-0.32 5 -1.64 5 -3 5 C-3 5.66 -3 6.32 -3 7 C-6.46153846 10 -6.46153846 10 -9 10 C-9.268125 10.639375 -9.53625 11.27875 -9.8125 11.9375 C-11 14 -11 14 -14 15 C-13.835 14.401875 -13.67 13.80375 -13.5 13.1875 C-12.8885876 10.88655664 -12.8885876 10.88655664 -13 8 C-10.6640625 6.2109375 -10.6640625 6.2109375 -7.625 4.375 C-6.12839844 3.45847656 -6.12839844 3.45847656 -4.6015625 2.5234375 C-3.09199043 1.63945386 -1.56466863 0.78233432 0 0 Z " fill="#D7DEDE" transform="translate(76,70)"/>
<path d="M0 0 C1.65 0.33 3.3 0.66 5 1 C5 1.99 5 2.98 5 4 C5.99 4.33 6.98 4.66 8 5 C7.75 6.875 7.75 6.875 7 9 C4.9375 10.25 4.9375 10.25 3 11 C3 9.02 3 7.04 3 5 C2.34 5 1.68 5 1 5 C1 6.65 1 8.3 1 10 C-0.32 9.67 -1.64 9.34 -3 9 C-3 7.35 -3 5.7 -3 4 C-2.34 4 -1.68 4 -1 4 C-0.67 2.68 -0.34 1.36 0 0 Z " fill="#E6EAEA" transform="translate(77,26)"/>
<path d="M0 0 C2.64 0 5.28 0 8 0 C8 0.99 8 1.98 8 3 C7.01 3.495 7.01 3.495 6 4 C6 4.66 6 5.32 6 6 C6.99 6 7.98 6 9 6 C9 6.99 9 7.98 9 9 C8.21625 8.95875 7.4325 8.9175 6.625 8.875 C3.83883881 8.71271266 3.83883881 8.71271266 2 11 C-0.26881841 7.91440696 -1.05451946 6.57790624 -0.6875 2.6875 C-0.460625 1.800625 -0.23375 0.91375 0 0 Z " fill="#CC3247" transform="translate(33,19)"/>
<path d="M0 0 C0.33 0.99 0.66 1.98 1 3 C1.99 3 2.98 3 4 3 C4 2.01 4 1.02 4 0 C4.66 0 5.32 0 6 0 C6 1.65 6 3.3 6 5 C4.98679687 5.18175781 4.98679687 5.18175781 3.953125 5.3671875 C3.06109375 5.53476562 2.1690625 5.70234375 1.25 5.875 C0.36828125 6.03742187 -0.5134375 6.19984375 -1.421875 6.3671875 C-4.000952 6.88927341 -4.000952 6.88927341 -6.140625 8.1328125 C-8 9 -8 9 -11 8 C-10.34 7.34 -9.68 6.68 -9 6 C-9.99 6 -10.98 6 -12 6 C-12.66 6.66 -13.32 7.32 -14 8 C-14 6.35 -14 4.7 -14 3 C-9.38 3 -4.76 3 0 3 C0 2.01 0 1.02 0 0 Z " fill="#091E1D" transform="translate(23,49)"/>
<path d="M0 0 C0.33 0 0.66 0 1 0 C1 2.31 1 4.62 1 7 C1.70576172 6.44119141 1.70576172 6.44119141 2.42578125 5.87109375 C3.35970703 5.16146484 3.35970703 5.16146484 4.3125 4.4375 C4.92738281 3.96183594 5.54226562 3.48617187 6.17578125 2.99609375 C6.77777344 2.66738281 7.37976563 2.33867188 8 2 C8.99 2.33 9.98 2.66 11 3 C6 8 6 8 4.3125 9.34375 C2.75365662 10.97210396 2.75365662 10.97210396 2.92578125 13.48046875 C3.11720703 14.82044922 3.11720703 14.82044922 3.3125 16.1875 C3.43238281 17.08855469 3.55226563 17.98960938 3.67578125 18.91796875 C3.78277344 19.60503906 3.88976562 20.29210937 4 21 C3.34 21.33 2.68 21.66 2 22 C-0.35582065 17.37183267 -0.23521469 13.24465865 -0.125 8.1875 C-0.11597656 7.39923828 -0.10695313 6.61097656 -0.09765625 5.79882812 C-0.07422504 3.86575334 -0.03835838 1.9328362 0 0 Z " fill="#182929" transform="translate(9,67)"/>
<path d="M0 0 C6.75 5.75 6.75 5.75 9 8 C8.67 8.66 8.34 9.32 8 10 C5.04590299 8.62845496 2.55991624 7.01136276 0 5 C-2.5841005 6.54801956 -2.5841005 6.54801956 -5 9 C-5.89055736 12.64182335 -5.89055736 12.64182335 -6 16 C-6.33 16 -6.66 16 -7 16 C-7 13.69 -7 11.38 -7 9 C-7.66 8.67 -8.32 8.34 -9 8 C-6.03 5.36 -3.06 2.72 0 0 Z " fill="#232A2A" transform="translate(53,35)"/>
<path d="M0 0 C3.36720387 1.39332574 4.9859524 2.9789286 7 6 C6.34 7.32 5.68 8.64 5 10 C2.03 9.505 2.03 9.505 -1 9 C-1.66 7.02 -2.32 5.04 -3 3 C-2.01 2.01 -1.02 1.02 0 0 Z " fill="#241C1F" transform="translate(64,30)"/>
<path d="M0 0 C1 4 1 4 2 8 C3.32 8 4.64 8 6 8 C6 8.99 6 9.98 6 11 C1.38 11 -3.24 11 -8 11 C-6.50260417 9.01432292 -5.00520833 7.02864583 -3.5078125 5.04296875 C-2.29185219 3.39543703 -1.13583859 1.70375789 0 0 Z " fill="#A91D2E" transform="translate(37,86)"/>
<path d="M0 0 C1.32 0.66 2.64 1.32 4 2 C4 3.98 4 5.96 4 8 C5.65 8.33 7.3 8.66 9 9 C9.33 9.99 9.66 10.98 10 12 C10.66 12.33 11.32 12.66 12 13 C11.01 13.33 10.02 13.66 9 14 C8.34 13.01 7.68 12.02 7 11 C3.75791433 11.35049575 2.38472296 11.56221181 0.1875 14.0625 C-0.204375 14.701875 -0.59625 15.34125 -1 16 C-1.6875 14.3125 -1.6875 14.3125 -2 12 C-1.505 11.236875 -1.01 10.47375 -0.5 9.6875 C1.49795455 6.10783142 0.84454076 3.91559809 0 0 Z " fill="#2D272A" transform="translate(83,27)"/>
<path d="M0 0 C3 0.125 3 0.125 4 1.125 C4.04080783 3.12458364 4.04254356 5.12545254 4 7.125 C1.6875 8.25 1.6875 8.25 -1 9.125 C-1.99 8.465 -2.98 7.805 -4 7.125 C-4.25 4.0625 -4.25 4.0625 -4 1.125 C-3 0.125 -3 0.125 0 0 Z " fill="#AC2536" transform="translate(54,16.875)"/>
<path d="M0 0 C3.5 0.8125 3.5 0.8125 5.4375 1.875 C7.19959328 5.08822893 6.67782537 8.1967174 6.5 11.8125 C5.51 11.4825 4.52 11.1525 3.5 10.8125 C3.17 8.8325 2.84 6.8525 2.5 4.8125 C1.22125 4.791875 -0.0575 4.77125 -1.375 4.75 C-2.09429687 4.73839844 -2.81359375 4.72679687 -3.5546875 4.71484375 C-5.58185404 4.68600758 -5.58185404 4.68600758 -7.5 5.8125 C-7.1875 3.9375 -7.1875 3.9375 -6.5 1.8125 C-3.5 -0.1875 -3.5 -0.1875 0 0 Z " fill="#F7EDED" transform="translate(54.5,13.1875)"/>
<path d="M0 0 C0.33 1.32 0.66 2.64 1 4 C2.65 4 4.3 4 6 4 C6 4.33 6 4.66 6 5 C-2.91 5 -11.82 5 -21 5 C-21.33 4.34 -21.66 3.68 -22 3 C-20.35 2.34 -18.7 1.68 -17 1 C-17 1.66 -17 2.32 -17 3 C-14.35319096 2.88660796 -11.70822482 2.75987127 -9.0625 2.625 C-8.30775391 2.5940625 -7.55300781 2.563125 -6.77539062 2.53125 C-4.84492605 2.4273685 -2.92057919 2.22104386 -1 2 C-0.67 1.34 -0.34 0.68 0 0 Z " fill="#0E1B1D" transform="translate(46,94)"/>
<path d="M0 0 C0 0.99 0 1.98 0 3 C0.66 3.33 1.32 3.66 2 4 C-1.3 7.3 -4.6 10.6 -8 14 C-8.99 13.01 -9.98 12.02 -11 11 C-10.4946875 10.61328125 -9.989375 10.2265625 -9.46875 9.828125 C-8.8190625 9.30734375 -8.169375 8.7865625 -7.5 8.25 C-6.8503125 7.73953125 -6.200625 7.2290625 -5.53125 6.703125 C-3.55427485 4.88595704 -3.55427485 4.88595704 -4 1 C-2 0 -2 0 0 0 Z " fill="#BA1D2C" transform="translate(59,73)"/>
<path d="M0 0 C0 1.98 0 3.96 0 6 C-2.90600261 7.25664978 -4.79604584 8 -8 8 C-8.66 6.35 -9.32 4.7 -10 3 C-6.27034861 0.96564469 -4.33094958 0 0 0 Z " fill="#EEF1F1" transform="translate(97,71)"/>
<path d="M0 0 C-3.10758423 2.07172282 -6.28057536 3.84285992 -9.5625 5.625 C-10.71878906 6.25664063 -11.87507813 6.88828125 -13.06640625 7.5390625 C-16 9 -16 9 -18 9 C-18 7.68 -18 6.36 -18 5 C-11.75838097 1.41874318 -7.24579719 -0.67090715 0 0 Z " fill="#E7EBEB" transform="translate(29,54)"/>
<path d="M0 0 C0.66 1.32 1.32 2.64 2 4 C1.01 5.485 1.01 5.485 0 7 C0.66 7.33 1.32 7.66 2 8 C0.68 9.32 -0.64 10.64 -2 12 C-3.32 11.34 -4.64 10.68 -6 10 C-4.79157144 5.56909529 -3.48331435 3.01887244 0 0 Z " fill="#C61E32" transform="translate(43,80)"/>
<path d="M0 0 C1.98 1.32 3.96 2.64 6 4 C2.90644332 9.41372419 -0.88327027 12.49777237 -6 16 C-6 15.01 -6 14.02 -6 13 C-4.68 12.67 -3.36 12.34 -2 12 C-1.34 8.04 -0.68 4.08 0 0 Z " fill="#B9283A" transform="translate(49,28)"/>
<path d="M0 0 C0.99 0 1.98 0 3 0 C3 4.29 3 8.58 3 13 C2.67 12.01 2.34 11.02 2 10 C1.34 9.67 0.68 9.34 0 9 C0.33 7.68 0.66 6.36 1 5 C-1.31 5.33 -3.62 5.66 -6 6 C-6.33 5.34 -6.66 4.68 -7 4 C-3.535 3.505 -3.535 3.505 0 3 C0 2.01 0 1.02 0 0 Z " fill="#0D1A1C" transform="translate(96,52)"/>
<path d="M0 0 C0.33 1.32 0.66 2.64 1 4 C-8.22551253 10.51936219 -8.22551253 10.51936219 -14 12 C-9.73412126 7.45890328 -4.96387672 3.75264754 0 0 Z " fill="#25292D" transform="translate(53,69)"/>
<path d="M0 0 C-1 3 -1 3 -3.36328125 4.23828125 C-4.33652344 4.59277344 -5.30976562 4.94726562 -6.3125 5.3125 C-7.76076172 5.86357422 -7.76076172 5.86357422 -9.23828125 6.42578125 C-12 7 -12 7 -14.35546875 6.10546875 C-14.89816406 5.74066406 -15.44085938 5.37585938 -16 5 C-14.58521865 4.35004703 -13.16808513 3.70521278 -11.75 3.0625 C-10.96109375 2.70285156 -10.1721875 2.34320313 -9.359375 1.97265625 C-6.08709972 0.62365535 -3.54843083 0 0 0 Z " fill="#818E8E" transform="translate(97,65)"/>
<path d="M0 0 C2.84574968 1.27568089 5.18089981 2.41496289 7 5 C6.6875 7.6875 6.6875 7.6875 6 10 C5.7525 9.38125 5.505 8.7625 5.25 8.125 C3.79371361 5.64931313 2.62187494 5.04874998 0 4 C-0.12375 4.804375 -0.2475 5.60875 -0.375 6.4375 C-0.58125 7.283125 -0.7875 8.12875 -1 9 C-1.99 9.495 -1.99 9.495 -3 10 C-3.75 7.25 -3.75 7.25 -4 4 C-2.0625 1.625 -2.0625 1.625 0 0 Z " fill="#281B1D" transform="translate(41,30)"/>
<path d="M0 0 C0 0.99 0 1.98 0 3 C-2.12392506 3.6700834 -4.24917524 4.33596797 -6.375 5 C-7.55835937 5.37125 -8.74171875 5.7425 -9.9609375 6.125 C-13 7 -13 7 -15 7 C-15 6.34 -15 5.68 -15 5 C-14.01 4.67 -13.02 4.34 -12 4 C-12.66 3.34 -13.32 2.68 -14 2 C-12.4176994 1.66179834 -10.83410625 1.32964061 -9.25 1 C-8.36828125 0.814375 -7.4865625 0.62875 -6.578125 0.4375 C-4 0 -4 0 0 0 Z " fill="#C82435" transform="translate(97,57)"/>
<path d="M0 0 C1.9375 0.6875 1.9375 0.6875 4 2 C4.75 4.625 4.75 4.625 5 7 C4.34 7 3.68 7 3 7 C3 6.34 3 5.68 3 5 C2.01 5 1.02 5 0 5 C0 5.99 0 6.98 0 8 C-0.99 8 -1.98 8 -3 8 C-3.36923077 3.44615385 -3.36923077 3.44615385 -1.5 1.1875 C-1.005 0.795625 -0.51 0.40375 0 0 Z " fill="#D4DADA" transform="translate(27,44)"/>
<path d="M0 0 C0.66 0.33 1.32 0.66 2 1 C2 1.66 2 2.32 2 3 C0.52304509 4.28430862 -0.95806138 5.56580708 -2.4921875 6.78125 C-4.13813095 8.06784671 -4.13813095 8.06784671 -6 10 C-6.66 10 -7.32 10 -8 10 C-8.99 10.495 -8.99 10.495 -10 11 C-7.99155908 6.07019047 -4.35894926 2.90596617 0 0 Z " fill="#1A302D" transform="translate(81,74)"/>
<path d="M0 0 C0.33 0.99 0.66 1.98 1 3 C1.66 3.33 2.32 3.66 3 4 C3.625 7.0625 3.625 7.0625 4 10 C4.99 10.33 5.98 10.66 7 11 C7 11.66 7 12.32 7 13 C4.69 13 2.38 13 0 13 C0 8.71 0 4.42 0 0 Z " fill="#A61C2C" transform="translate(9,39)"/>
<path d="M0 0 C1.9375 0.6875 1.9375 0.6875 4 2 C4.75 4.625 4.75 4.625 5 7 C4.34 7 3.68 7 3 7 C3 6.34 3 5.68 3 5 C2.01 5 1.02 5 0 5 C0 5.66 0 6.32 0 7 C-0.99 7 -1.98 7 -3 7 C-2.25 2.25 -2.25 2.25 0 0 Z " fill="#D3DBDC" transform="translate(69,44)"/>
<path d="M0 0 C2.0625 1.6875 2.0625 1.6875 4 4 C3.75 6.75 3.75 6.75 3 9 C2.01 9.33 1.02 9.66 0 10 C-1.49106457 7.01787087 -1.11941467 4.28390342 -1 1 C-0.67 0.67 -0.34 0.34 0 0 Z " fill="#DEE3E3" transform="translate(85,78)"/>
<path d="M0 0 C3 1 3 1 5 4 C5 4.99 5 5.98 5 7 C4.01 7.33 3.02 7.66 2 8 C2 6.68 2 5.36 2 4 C1.34 4 0.68 4 0 4 C0 5.32 0 6.64 0 8 C-0.99 7.67 -1.98 7.34 -3 7 C-2.38722388 4.03824877 -1.74627478 2.61941217 0 0 Z " fill="#E2E7E7" transform="translate(16,40)"/>
<path d="M0 0 C0.66 0.66 1.32 1.32 2 2 C0.02 5.96 -1.96 9.92 -4 14 C-4.99 13.67 -5.98 13.34 -7 13 C-6.40572612 11.39214223 -5.79916412 9.78882291 -5.1875 8.1875 C-4.85105469 7.29417969 -4.51460938 6.40085937 -4.16796875 5.48046875 C-3.03802681 3.08075928 -1.98937707 1.71576647 0 0 Z " fill="#979E9A" transform="translate(69,83)"/>
<path d="M0 0 C-0.495 0.598125 -0.99 1.19625 -1.5 1.8125 C-3.28276418 3.97029994 -3.28276418 3.97029994 -3 7 C-4.65 6.67 -6.3 6.34 -8 6 C-8.33 4.68 -8.66 3.36 -9 2 C-3.375 -1.125 -3.375 -1.125 0 0 Z " fill="#B82836" transform="translate(72,65)"/>
<path d="M0 0 C0.66 0.33 1.32 0.66 2 1 C1.67 1.66 1.34 2.32 1 3 C1.99 3 2.98 3 4 3 C4 3.66 4 4.32 4 5 C1.09451118 7.04169485 -0.40142046 8 -4 8 C-3.6875 5.125 -3.6875 5.125 -3 2 C-2.01 1.34 -1.02 0.68 0 0 Z " fill="#E22439" transform="translate(63,68)"/>
<path d="M0 0 C2 0.25 2 0.25 4 1 C4.33 1.99 4.66 2.98 5 4 C4.01 5.485 4.01 5.485 3 7 C2.67 6.34 2.34 5.68 2 5 C1.67 5.99 1.34 6.98 1 8 C0.01 7.67 -0.98 7.34 -2 7 C-1.125 1.125 -1.125 1.125 0 0 Z " fill="#CBD2D3" transform="translate(87,37)"/>
<path d="M0 0 C0 4.95 0 9.9 0 15 C-0.99 15.495 -0.99 15.495 -2 16 C-2 14.68 -2 13.36 -2 12 C-2.99 11.67 -3.98 11.34 -5 11 C-4.01 10.34 -3.02 9.68 -2 9 C-1.26656572 5.93443402 -1.26656572 5.93443402 -1 3 C-2.32 2.67 -3.64 2.34 -5 2 C-1.125 0 -1.125 0 0 0 Z " fill="#0A2020" transform="translate(99,67)"/>
<path d="M0 0 C3 1 3 1 5 4 C7.05003955 5.19232613 7.05003955 5.19232613 9 6 C9 6.33 9 6.66 9 7 C7.7625 7.12375 6.525 7.2475 5.25 7.375 C2.1237803 7.75746305 -0.28879237 8.30549523 -3 10 C-3 9.34 -3 8.68 -3 8 C-1 6.375 -1 6.375 1 5 C0.67 3.35 0.34 1.7 0 0 Z " fill="#9D2134" transform="translate(69,33)"/>
<path d="M0 0 C2.475 0.99 2.475 0.99 5 2 C5 2.66 5 3.32 5 4 C4.01 4.33 3.02 4.66 2 5 C0.79117904 7.00016466 0.79117904 7.00016466 0 9 C-0.99 9 -1.98 9 -3 9 C-2.01 6.03 -1.02 3.06 0 0 Z " fill="#C9D3D4" transform="translate(71,88)"/>
<path d="M0 0 C1.65 0 3.3 0 5 0 C5 0.99 5 1.98 5 3 C5.66 3 6.32 3 7 3 C7 3.66 7 4.32 7 5 C4.36 5 1.72 5 -1 5 C-0.67 3.35 -0.34 1.7 0 0 Z " fill="#561A25" transform="translate(86,47)"/>
<path d="M0 0 C2.31 0.33 4.62 0.66 7 1 C5.95125002 3.62187494 5.35068687 4.79371361 2.875 6.25 C2.25625 6.4975 1.6375 6.745 1 7 C0 2.25 0 2.25 0 0 Z " fill="#2F4442" transform="translate(88,89)"/>
<path d="M0 0 C-1 3 -1 3 -3 4 C-5.6723621 4.13415472 -8.32250488 4.04318541 -11 4 C-10.67 3.01 -10.34 2.02 -10 1 C-6.56484998 0.37542727 -3.50935186 0 0 0 Z " fill="#CFD5D1" transform="translate(85,93)"/>
<path d="M0 0 C0.66 0 1.32 0 2 0 C2.226875 0.7425 2.45375 1.485 2.6875 2.25 C4.24407532 5.51139591 6.08518854 6.92894975 9 9 C7.3125 9.8125 7.3125 9.8125 5 10 C2.25 7.875 2.25 7.875 0 5 C-0.3125 2.1875 -0.3125 2.1875 0 0 Z " fill="#251C1E" transform="translate(18,30)"/>
<path d="M0 0 C0.66 0 1.32 0 2 0 C1.35455571 3.48539917 -0.10134397 6.02819057 -2 9 C-3.32 8.67 -4.64 8.34 -6 8 C-5.04956626 6.66102417 -4.08940853 5.32894573 -3.125 4 C-2.59132812 3.2575 -2.05765625 2.515 -1.5078125 1.75 C-1.01023437 1.1725 -0.51265625 0.595 0 0 Z " fill="#D9E0E0" transform="translate(53,88)"/>
<path d="M0 0 C0 0.66 0 1.32 0 2 C-4.62 3.32 -9.24 4.64 -14 6 C-14.33 5.34 -14.66 4.68 -15 4 C-13.25307205 3.32532438 -11.50231475 2.66055844 -9.75 2 C-8.77546875 1.62875 -7.8009375 1.2575 -6.796875 0.875 C-4 0 -4 0 0 0 Z " fill="#CCD4D5" transform="translate(97,63)"/>
<path d="M0 0 C-2.90600261 1.25664978 -4.79604584 2 -8 2 C-8.33 2.99 -8.66 3.98 -9 5 C-10.875 5.8125 -10.875 5.8125 -13 6 C-13.99 5.34 -14.98 4.68 -16 4 C-14.08959948 3.1319092 -12.17139263 2.28098217 -10.25 1.4375 C-9.18265625 0.96183594 -8.1153125 0.48617187 -7.015625 -0.00390625 C-4.01630163 -0.9946154 -2.86578759 -1.16161779 0 0 Z " fill="#2A191C" transform="translate(93,62)"/>
<path d="M0 0 C0 0.66 0 1.32 0 2 C-5.41538462 5.07692308 -5.41538462 5.07692308 -8.375 4.6875 C-8.91125 4.460625 -9.4475 4.23375 -10 4 C-6.87839899 0.56623888 -4.64008112 -1.54669371 0 0 Z " fill="#1C302E" transform="translate(29,56)"/>
<path d="M0 0 C0.598125 0.763125 1.19625 1.52625 1.8125 2.3125 C3.46959332 4.3483575 5.10297674 6.1978279 7 8 C3.67465243 9.10844919 1.37817425 8.84454356 -2 8 C-1.34 7.34 -0.68 6.68 0 6 C0.16681109 2.91652174 0.16681109 2.91652174 0 0 Z " fill="#4A3943" transform="translate(62,46)"/>
<path d="M0 0 C1.9375 0.375 1.9375 0.375 4 1 C5.35439668 3.70879335 5.06501451 6.00933268 5 9 C3.02 9.99 3.02 9.99 1 11 C0.01 10.34 -0.98 9.68 -2 9 C-0.35 9 1.3 9 3 9 C2.67 7.02 2.34 5.04 2 3 C1.01 3 0.02 3 -1 3 C-0.67 2.01 -0.34 1.02 0 0 Z " fill="#17161A" transform="translate(93,40)"/>
<path d="M0 0 C2.125 0.375 2.125 0.375 4 1 C3.34 1 2.68 1 2 1 C2 3.31 2 5.62 2 8 C0.68 7.34 -0.64 6.68 -2 6 C-2 2 -2 2 0 0 Z " fill="#DAE1E2" transform="translate(24,30)"/>
<path d="M0 0 C-0.33 0.66 -0.66 1.32 -1 2 C-2.32 2 -3.64 2 -5 2 C-5.33 3.32 -5.66 4.64 -6 6 C-6.99 6 -7.98 6 -9 6 C-9.33 7.32 -9.66 8.64 -10 10 C-10.8125 7.8125 -10.8125 7.8125 -11 5 C-7.72638491 0.53597943 -5.49353968 -0.63878368 0 0 Z " fill="#344143" transform="translate(30,24)"/>
<path d="M0 0 C0.86625 0.5259375 0.86625 0.5259375 1.75 1.0625 C4.35801776 2.14917407 5.39417629 1.93065133 8 1 C7.34 2.65 6.68 4.3 6 6 C5.67 5.34 5.34 4.68 5 4 C3.68 4.33 2.36 4.66 1 5 C0.34 4.01 -0.32 3.02 -1 2 C-0.67 1.34 -0.34 0.68 0 0 Z " fill="#861622" transform="translate(38,90)"/>
<path d="M0 0 C0 0.99 0 1.98 0 3 C-0.61875 3.2475 -1.2375 3.495 -1.875 3.75 C-4.38710296 5.22770762 -4.76107344 6.43955177 -6 9 C-6.99 9.33 -7.98 9.66 -9 10 C-8.62669176 7.27425729 -8.20805399 6.19177915 -6.15234375 4.296875 C-5.42144531 3.78640625 -4.69054687 3.2759375 -3.9375 2.75 C-3.20402344 2.22921875 -2.47054687 1.7084375 -1.71484375 1.171875 C-1.14894531 0.78515625 -0.58304688 0.3984375 0 0 Z " fill="#384A4B" transform="translate(71,75)"/>
<path d="M0 0 C0.90105469 0.02707031 1.80210938 0.05414063 2.73046875 0.08203125 C3.76107422 0.13423828 3.76107422 0.13423828 4.8125 0.1875 C1.21198847 2.58784102 -2.14894535 4.50937705 -6.5625 3.8125 C-7.09875 3.60625 -7.635 3.4 -8.1875 3.1875 C-5.67753317 0.01043235 -3.96125134 -0.15433447 0 0 Z " fill="#E8ECEC" transform="translate(60.1875,53.8125)"/>
<path d="M0 0 C2.8125 -0.3125 2.8125 -0.3125 6 0 C7.875 2.5 7.875 2.5 9 5 C5.625 4.75 5.625 4.75 2 4 C0.5625 1.9375 0.5625 1.9375 0 0 Z " fill="#DEE4E4" transform="translate(76,86)"/>
<path d="M0 0 C0 0.99 0 1.98 0 3 C0.66 3.33 1.32 3.66 2 4 C0.35 5.32 -1.3 6.64 -3 8 C-3.33 5.69 -3.66 3.38 -4 1 C-2 0 -2 0 0 0 Z " fill="#981E2B" transform="translate(59,73)"/>
<path d="M0 0 C0.99 0.33 1.98 0.66 3 1 C2.67 1.33 2.34 1.66 2 2 C2.99 2.66 3.98 3.32 5 4 C3.1875 5.5625 3.1875 5.5625 1 7 C0.01 6.67 -0.98 6.34 -2 6 C-1.67 5.34 -1.34 4.68 -1 4 C-1.66 3.34 -2.32 2.68 -3 2 C-2.01 1.34 -1.02 0.68 0 0 Z " fill="#DDE3E3" transform="translate(80,68)"/>
<path d="M0 0 C2.31 0 4.62 0 7 0 C7.66 1.32 8.32 2.64 9 4 C6.1875 4.25 6.1875 4.25 3 4 C1.125 2 1.125 2 0 0 Z " fill="#D6DBDC" transform="translate(72,42)"/>
<path d="M0 0 C0.33 0.66 0.66 1.32 1 2 C1.66 2.33 2.32 2.66 3 3 C2.01 4.485 2.01 4.485 1 6 C-1.1640625 6.29296875 -1.1640625 6.29296875 -3.625 6.1875 C-4.44226562 6.16042969 -5.25953125 6.13335937 -6.1015625 6.10546875 C-7.04128906 6.05326172 -7.04128906 6.05326172 -8 6 C-7.01 5.01 -6.02 4.02 -5 3 C-4.67 3.66 -4.34 4.32 -4 5 C-2.29159719 3.36587557 -1.06546953 2.13093906 0 0 Z " fill="#D6DEDC" transform="translate(61,91)"/>
<path d="M0 0 C3 3.75 3 3.75 3 6 C3.66 6 4.32 6 5 6 C4.67 6.99 4.34 7.98 4 9 C2.8274869 8.04882866 1.66212985 7.08882991 0.5 6.125 C-0.1496875 5.59132813 -0.799375 5.05765625 -1.46875 4.5078125 C-1.9740625 4.01023437 -2.479375 3.51265625 -3 3 C-3 2.34 -3 1.68 -3 1 C-2.01 0.67 -1.02 0.34 0 0 Z " fill="#9A162D" transform="translate(59,35)"/>
<path d="M0 0 C1.32 0.66 2.64 1.32 4 2 C4 3.32 4 4.64 4 6 C2.35 6 0.7 6 -1 6 C-1.625 4.125 -1.625 4.125 -2 2 C-1.34 1.34 -0.68 0.68 0 0 Z " fill="#CCD3D4" transform="translate(64,33)"/>
<path d="M0 0 C1.4540625 0.0309375 1.4540625 0.0309375 2.9375 0.0625 C2.2775 2.0425 1.6175 4.0225 0.9375 6.0625 C-0.0525 5.7325 -1.0425 5.4025 -2.0625 5.0625 C-2.0625 4.0725 -2.0625 3.0825 -2.0625 2.0625 C-2.7225 1.7325 -3.3825 1.4025 -4.0625 1.0625 C-3.0625 0.0625 -3.0625 0.0625 0 0 Z " fill="#D07986" transform="translate(54.0625,16.9375)"/>
<path d="M0 0 C2 0.66666667 4 1.33333333 6 2 C6 3.98 6 5.96 6 8 C5.67 8 5.34 8 5 8 C5 6.35 5 4.7 5 3 C2.69 3.66 0.38 4.32 -2 5 C-2.33 4.34 -2.66 3.68 -3 3 C-2.01 2.01 -1.02 1.02 0 0 Z " fill="#374C4C" transform="translate(92,68)"/>
<path d="M0 0 C0.70125 0.2475 1.4025 0.495 2.125 0.75 C-0.25957948 2.33971965 -2.5054124 3.61741593 -5.0625 4.875 C-5.77792969 5.22820312 -6.49335937 5.58140625 -7.23046875 5.9453125 C-7.77316406 6.21085937 -8.31585938 6.47640625 -8.875 6.75 C-8.875 5.76 -8.875 4.77 -8.875 3.75 C-3.98222101 -0.34628009 -3.98222101 -0.34628009 0 0 Z " fill="#D72334" transform="translate(79.875,63.25)"/>
<path d="M0 0 C0.99 0 1.98 0 3 0 C3 1.65 3 3.3 3 5 C-0.96 4.67 -4.92 4.34 -9 4 C-9 3.67 -9 3.34 -9 3 C-4.545 2.505 -4.545 2.505 0 2 C0 1.34 0 0.68 0 0 Z " fill="#1A262D" transform="translate(93,50)"/>
<path d="M0 0 C2.31 0 4.62 0 7 0 C7.66 1.32 8.32 2.64 9 4 C6.1875 4.25 6.1875 4.25 3 4 C1.125 2 1.125 2 0 0 Z " fill="#D8DEDF" transform="translate(30,42)"/>
<path d="M0 0 C0.66 0.66 1.32 1.32 2 2 C1.01 2.66 0.02 3.32 -1 4 C-0.01 4.33 0.98 4.66 2 5 C2 5.66 2 6.32 2 7 C-1.71599191 7.20086443 -2.77208445 7.1519437 -6 5 C-4.02 3.35 -2.04 1.7 0 0 Z " fill="#CCD5D5" transform="translate(53,39)"/>
<path d="M0 0 C1.32 0.66 2.64 1.32 4 2 C3.67 3.32 3.34 4.64 3 6 C2.67 5.34 2.34 4.68 2 4 C1.34 4 0.68 4 0 4 C0 4.66 0 5.32 0 6 C-0.66 6 -1.32 6 -2 6 C-1.125 1.125 -1.125 1.125 0 0 Z " fill="#CED4D5" transform="translate(41,33)"/>
<path d="M0 0 C0.33 0.66 0.66 1.32 1 2 C1.99 2.33 2.98 2.66 4 3 C3.01 3 2.02 3 1 3 C1.33 3.99 1.66 4.98 2 6 C-0.31 6 -2.62 6 -5 6 C-3.86695008 2.60085025 -2.87481525 1.94745549 0 0 Z " fill="#071D1D" transform="translate(74,82)"/>
<path d="M0 0 C2 1 2 1 3 3 C0.69 4.32 -1.62 5.64 -4 7 C-4.66 6.01 -5.32 5.02 -6 4 C-4.02 2.68 -2.04 1.36 0 0 Z " fill="#243635" transform="translate(40,65)"/>
<path d="M0 0 C-3.20336822 2.83374881 -5.78087253 3.5205537 -10 4 C-7.10257116 -0.27715685 -5.06635533 -1.57231717 0 0 Z " fill="#112826" transform="translate(47,56)"/>
<path d="M0 0 C1.32 0.33 2.64 0.66 4 1 C2.25 4.875 2.25 4.875 0 6 C-1.13350534 8.01669827 -1.13350534 8.01669827 -2 10 C-2.25 3.375 -2.25 3.375 0 0 Z " fill="#3A4B49" transform="translate(11,54)"/>
<path d="M0 0 C1.98 0 3.96 0 6 0 C6 1.32 6 2.64 6 4 C4.02 4 2.04 4 0 4 C0 2.68 0 1.36 0 0 Z " fill="#AAB4B8" transform="translate(77,48)"/>
<path d="M0 0 C1.98 0 3.96 0 6 0 C6 1.32 6 2.64 6 4 C4.02 4 2.04 4 0 4 C0 2.68 0 1.36 0 0 Z " fill="#A7B3B7" transform="translate(35,48)"/>
<path d="M0 0 C2 2 2 2 2.125 4.625 C2.08375 5.40875 2.0425 6.1925 2 7 C0.68 7 -0.64 7 -2 7 C-2 5.02 -2 3.04 -2 1 C-1.34 0.67 -0.68 0.34 0 0 Z " fill="#FAFDFC" transform="translate(49,44)"/>
<path d="M0 0 C0.33 1.32 0.66 2.64 1 4 C0.195625 4.12375 -0.60875 4.2475 -1.4375 4.375 C-2.7059375 4.684375 -2.7059375 4.684375 -4 5 C-4.33 5.66 -4.66 6.32 -5 7 C-5.66 6.01 -6.32 5.02 -7 4 C-6.01 3.01 -5.02 2.02 -4 1 C-3.01 1.33 -2.02 1.66 -1 2 C-0.67 1.34 -0.34 0.68 0 0 Z " fill="#3B3437" transform="translate(45,36)"/>
<path d="M0 0 C1.32 0.99 2.64 1.98 4 3 C3.38125 3.433125 2.7625 3.86625 2.125 4.3125 C-0.2197245 5.99740483 -0.2197245 5.99740483 -2 9 C-2.6875 7.3125 -2.6875 7.3125 -3 5 C-1.5625 2.25 -1.5625 2.25 0 0 Z " fill="#552A34" transform="translate(84,34)"/>
<path d="M0 0 C3.14737182 0.69941596 6.02588876 1.76078698 9 3 C9 3.99 9 4.98 9 6 C5.59687262 4.94124926 2.98646769 3.99097846 0 2 C0 1.34 0 0.68 0 0 Z " fill="#2A3A3A" transform="translate(16,93)"/>
<path d="M0 0 C0.66 0.33 1.32 0.66 2 1 C1.01 2.485 1.01 2.485 0 4 C0.33 4.99 0.66 5.98 1 7 C-0.32 7.33 -1.64 7.66 -3 8 C-3.33 6.35 -3.66 4.7 -4 3 C-2.68 2.01 -1.36 1.02 0 0 Z " fill="#A4ACAB" transform="translate(19,71)"/>
<path d="M0 0 C0 4.29 0 8.58 0 13 C-0.99 13 -1.98 13 -3 13 C-2.91621094 12.38511719 -2.83242187 11.77023438 -2.74609375 11.13671875 C-2.64425781 10.32847656 -2.54242188 9.52023438 -2.4375 8.6875 C-2.33308594 7.88699219 -2.22867188 7.08648437 -2.12109375 6.26171875 C-1.85244822 3.83182884 -1.85244822 3.83182884 -3 1 C-1 0 -1 0 0 0 Z " fill="#AA1F32" transform="translate(99,39)"/>
<path d="M0 0 C0.66 0 1.32 0 2 0 C2.33 1.65 2.66 3.3 3 5 C0.36 5 -2.28 5 -5 5 C-4.360625 4.731875 -3.72125 4.46375 -3.0625 4.1875 C-0.66868314 3.11332248 -0.66868314 3.11332248 0 0 Z " fill="#972133" transform="translate(35,35)"/>
<path d="M0 0 C-1.98 0.99 -1.98 0.99 -4 2 C-2.68 2.66 -1.36 3.32 0 4 C-1.670625 4.2165625 -1.670625 4.2165625 -3.375 4.4375 C-6.82142047 4.78372035 -6.82142047 4.78372035 -9 6 C-8.6875 4.125 -8.6875 4.125 -8 2 C-4.77208445 -0.1519437 -3.71599191 -0.20086443 0 0 Z " fill="#EFCFD2" transform="translate(56,13)"/>
<path d="M0 0 C0.33 0.99 0.66 1.98 1 3 C0.01 4.485 0.01 4.485 -1 6 C-2.65 5.67 -4.3 5.34 -6 5 C-5.34 3.68 -4.68 2.36 -4 1 C-3.01 1 -2.02 1 -1 1 C-0.67 0.67 -0.34 0.34 0 0 Z " fill="#7C8B88" transform="translate(60,90)"/>
<path d="M0 0 C0.86625 0.556875 0.86625 0.556875 1.75 1.125 C0.4375 2.625 0.4375 2.625 -1.25 4.125 C-2.24 4.125 -3.23 4.125 -4.25 4.125 C-4.25 3.465 -4.25 2.805 -4.25 2.125 C-4.91 1.795 -5.57 1.465 -6.25 1.125 C-2.80384615 -1.09038462 -2.80384615 -1.09038462 0 0 Z " fill="#7F8E8B" transform="translate(78.25,70.875)"/>
<path d="M0 0 C2.31 0.66 4.62 1.32 7 2 C6.67 3.32 6.34 4.64 6 6 C3.37812506 4.95125002 2.20628639 4.35068687 0.75 1.875 C0.5025 1.25625 0.255 0.6375 0 0 Z " fill="#AA1F32" transform="translate(19,38)"/>
<path d="M0 0 C0.33 1.32 0.66 2.64 1 4 C-0.75 5.0625 -0.75 5.0625 -3 6 C-4.32 5.67 -5.64 5.34 -7 5 C-4.69 3.35 -2.38 1.7 0 0 Z " fill="#2C3233" transform="translate(53,69)"/>
<path d="M0 0 C0.66 0.66 1.32 1.32 2 2 C1.34 2.66 0.68 3.32 0 4 C-0.40047444 6.32275177 -0.7397104 8.65739357 -1 11 C-1.33 11 -1.66 11 -2 11 C-2 8.69 -2 6.38 -2 4 C-2.66 3.67 -3.32 3.34 -4 3 C-2.68 2.01 -1.36 1.02 0 0 Z " fill="#28302F" transform="translate(48,40)"/>
<path d="M0 0 C0.99 0.99 1.98 1.98 3 3 C-0.625 6 -0.625 6 -4 6 C-2.84826645 3.53199953 -1.95216435 1.95216435 0 0 Z " fill="#211F22" transform="translate(53,35)"/>
<path d="M0 0 C2.64 0 5.28 0 8 0 C8 0.99 8 1.98 8 3 C7.01 3 6.02 3 5 3 C5 2.34 5 1.68 5 1 C4.34 1 3.68 1 3 1 C3 1.66 3 2.32 3 3 C2.01 3 1.02 3 0 3 C0 2.01 0 1.02 0 0 Z " fill="#DD8994" transform="translate(33,19)"/>
<path d="M0 0 C0.66 0.33 1.32 0.66 2 1 C1.34 2.65 0.68 4.3 0 6 C-1.65 6 -3.3 6 -5 6 C-3.35 4.02 -1.7 2.04 0 0 Z " fill="#D5DAD8" transform="translate(81,77)"/>
<path d="M0 0 C0.33 0.99 0.66 1.98 1 3 C-0.98 3.66 -2.96 4.32 -5 5 C-5.66 4.34 -6.32 3.68 -7 3 C-4.69 2.01 -2.38 1.02 0 0 Z " fill="#212B2D" transform="translate(67,62)"/>
<path d="M0 0 C-2.66559313 1.77706209 -5.0280615 2.87548273 -8 4 C-8 3.34 -8 2.68 -8 2 C-8.66 1.67 -9.32 1.34 -10 1 C-6.78548731 -0.60725635 -3.56387464 -0.05748185 0 0 Z " fill="#C5CCCD" transform="translate(29,54)"/>
<path d="M0 0 C-0.61875 0.4125 -1.2375 0.825 -1.875 1.25 C-4.06768281 3.05573879 -4.92788417 4.4090534 -6 7 C-7.125 2.25 -7.125 2.25 -6 0 C-3 -1 -3 -1 0 0 Z " fill="#061F20" transform="translate(71,44)"/>
<path d="M0 0 C0.33 0 0.66 0 1 0 C1.125 2.375 1.125 2.375 1 5 C0.34 5.66 -0.32 6.32 -1 7 C-1.99 7 -2.98 7 -4 7 C-3.67 5.35 -3.34 3.7 -3 2 C-2.34 2 -1.68 2 -1 2 C-0.67 1.34 -0.34 0.68 0 0 Z " fill="#D7E0E1" transform="translate(32,30)"/>
<path d="M0 0 C0.33 0 0.66 0 1 0 C1 2.31 1 4.62 1 7 C0.01 7.33 -0.98 7.66 -2 8 C-2.125 5.125 -2.125 5.125 -2 2 C-1.34 1.34 -0.68 0.68 0 0 Z " fill="#F2E5E8" transform="translate(49,17)"/>
<path d="M0 0 C0.66 0.33 1.32 0.66 2 1 C2 1.99 2 2.98 2 4 C3.32 4.66 4.64 5.32 6 6 C0.25 6.125 0.25 6.125 -2 5 C-1.34 3.35 -0.68 1.7 0 0 Z " fill="#304240" transform="translate(73,92)"/>
<path d="M0 0 C1.32 0 2.64 0 4 0 C3.67 1.32 3.34 2.64 3 4 C1.35 4 -0.3 4 -2 4 C-1.34 2.68 -0.68 1.36 0 0 Z " fill="#CDD6D4" transform="translate(91,86)"/>
<path d="M0 0 C-0.33 0.99 -0.66 1.98 -1 3 C-3.64 3 -6.28 3 -9 3 C-6.15236477 0.15236477 -3.96383452 0 0 0 Z " fill="#667874" transform="translate(97,65)"/>
<path d="M0 0 C-0.33 0.99 -0.66 1.98 -1 3 C-2.32 3 -3.64 3 -5 3 C-5 2.34 -5 1.68 -5 1 C-5.66 0.67 -6.32 0.34 -7 0 C-3.86650268 -1.04449911 -3.01031744 -0.93423645 0 0 Z " fill="#8F9B9A" transform="translate(66,59)"/>
<path d="M0 0 C1.98 0.99 1.98 0.99 4 2 C4 3.65 4 5.3 4 7 C3.01 7.495 3.01 7.495 2 8 C0.74335022 5.09399739 0 3.20395416 0 0 Z " fill="#201F20" transform="translate(83,27)"/>
<path d="M0 0 C0.66 0.33 1.32 0.66 2 1 C-2.75 6.75 -2.75 6.75 -5 9 C-5 5 -5 5 -2.5 2.25 C-1.675 1.5075 -0.85 0.765 0 0 Z " fill="#D23549" transform="translate(18,11)"/>
<path d="M0 0 C0.66 0.33 1.32 0.66 2 1 C1.01 2.98 0.02 4.96 -1 7 C-1.99 7 -2.98 7 -4 7 C-2.92598892 4.08482708 -2.22189824 2.22189824 0 0 Z " fill="#1A2B2C" transform="translate(31,89)"/>
<path d="M0 0 C-1.75 4.875 -1.75 4.875 -4 6 C-4.99 5.34 -5.98 4.68 -7 4 C-2.25 0 -2.25 0 0 0 Z " fill="#CAD5D6" transform="translate(29,91)"/>
<path d="M0 0 C0.66 0.33 1.32 0.66 2 1 C0.68 2.32 -0.64 3.64 -2 5 C-2.99 4.67 -3.98 4.34 -5 4 C-3.36587557 2.29159719 -2.13093906 1.06546953 0 0 Z " fill="#132826" transform="translate(46,62)"/>
<path d="M0 0 C2.31 0 4.62 0 7 0 C6.67 0.66 6.34 1.32 6 2 C4.66923011 2.34342449 3.33568021 2.67619874 2 3 C1.34 3.66 0.68 4.32 0 5 C0 3.35 0 1.7 0 0 Z " fill="#0A161A" transform="translate(9,52)"/>
<path d="M0 0 C0.99 0.33 1.98 0.66 3 1 C3 2.65 3 4.3 3 6 C2.01 6 1.02 6 0 6 C0 4.02 0 2.04 0 0 Z " fill="#CBD3D5" transform="translate(93,42)"/>
<path d="M0 0 C1.98 0.495 1.98 0.495 4 1 C4 2.32 4 3.64 4 5 C3.34 5 2.68 5 2 5 C2 4.34 2 3.68 2 3 C1.01 3 0.02 3 -1 3 C-0.67 2.01 -0.34 1.02 0 0 Z " fill="#DFE3E3" transform="translate(70,46)"/>
<path d="M0 0 C1.9375 0.3125 1.9375 0.3125 4 1 C4.33 1.99 4.66 2.98 5 4 C4.01 5.485 4.01 5.485 3 7 C2.01 4.69 1.02 2.38 0 0 Z " fill="#E0E5E5" transform="translate(87,37)"/>
<path d="M0 0 C0.99 0.33 1.98 0.66 3 1 C2.34 2.32 1.68 3.64 1 5 C-0.32 5 -1.64 5 -3 5 C-2.67 3.68 -2.34 2.36 -2 1 C-2 1.99 -2 2.98 -2 4 C-1.34 4 -0.68 4 0 4 C0 2.68 0 1.36 0 0 Z " fill="#232627" transform="translate(68,35)"/>
<path d="M0 0 C0.33 0 0.66 0 1 0 C1 2.31 1 4.62 1 7 C-0.875 7.625 -0.875 7.625 -3 8 C-3.66 7.34 -4.32 6.68 -5 6 C-4.360625 5.7525 -3.72125 5.505 -3.0625 5.25 C-0.81258459 4.18437567 -0.81258459 4.18437567 -0.25 1.875 C-0.1675 1.25625 -0.085 0.6375 0 0 Z " fill="#393B3C" transform="translate(33,31)"/>
<path d="M0 0 C0.66 0 1.32 0 2 0 C2 0.66 2 1.32 2 2 C2.66 2.33 3.32 2.66 4 3 C3.34 4.32 2.68 5.64 2 7 C1.34 7 0.68 7 0 7 C0 4.69 0 2.38 0 0 Z " fill="#1D2B2B" transform="translate(26,31)"/>
</svg>
